<svg width="76" height="60" viewBox="0 0 76 60" fill="none" xmlns="http://www.w3.org/2000/svg">
<path d="M70.6263 18.1539H48.0566V8.30773C48.0566 8.04619 47.857 7.84619 47.596 7.84619H36.2343C35.9733 7.84619 35.7737 8.04619 35.7737 8.30773V18.1539H13.204C11.2541 18.1539 9.67273 19.7385 9.67273 21.6923V54.6154C9.67273 56.5693 11.2541 58.1539 13.204 58.1539H70.6263C72.5762 58.1539 74.1576 56.5693 74.1576 54.6154V21.6923C74.1576 19.7385 72.5762 18.1539 70.6263 18.1539ZM50.8202 22.4616C50.8202 22.7231 50.6206 22.9231 50.3596 22.9231H33.4707C33.2097 22.9231 33.0101 22.7231 33.0101 22.4616V20.9231C33.0101 20.6616 33.2097 20.4616 33.4707 20.4616H35.7737V21.2308C35.7737 21.4923 35.9733 21.6923 36.2343 21.6923H47.596C47.857 21.6923 48.0566 21.4923 48.0566 21.2308V20.4616H50.3596C50.6206 20.4616 50.8202 20.6616 50.8202 20.9231V22.4616Z" fill="url(#paint0_linear_747_8706)"/>
<path d="M34.8525 9.04614H41.5467C41.8077 9.04614 42.0073 9.24614 42.0073 9.50768V12.4615C42.0073 13.3077 41.3164 14 40.4719 14H34.8525V9.04614Z" fill="#028484"/>
<path d="M62.9495 10.4614H5.52728C3.57739 10.4614 1.99597 12.046 1.99597 13.9999V46.923C1.99597 48.8768 3.57739 50.4614 5.52728 50.4614H62.9495C64.8994 50.4614 66.4808 48.8768 66.4808 46.923V13.9999C66.4808 12.046 64.8994 10.4614 62.9495 10.4614ZM43.1434 14.7691C43.1434 15.0307 42.9439 15.2307 42.6828 15.2307H25.794C25.5329 15.2307 25.3333 15.0307 25.3333 14.7691V13.2307C25.3333 12.9691 25.5329 12.7691 25.794 12.7691H42.6828C42.9439 12.7691 43.1434 12.9691 43.1434 13.2307V14.7691Z" fill="#1464A5"/>
<path d="M62.9496 10.4614H46.8898L25.2106 50.4614H62.9496C64.8995 50.4614 66.4809 48.8768 66.4809 46.923V13.9999C66.4809 12.046 64.8995 10.4614 62.9496 10.4614Z" fill="url(#paint1_linear_747_8706)"/>
<path d="M19.8368 30.2307C22.9488 30.2307 25.4715 27.7028 25.4715 24.5845C25.4715 21.4662 22.9488 18.9384 19.8368 18.9384C16.7248 18.9384 14.202 21.4662 14.202 24.5845C14.202 27.7028 16.7248 30.2307 19.8368 30.2307Z" fill="#D4EDFC"/>
<path d="M12.7588 31.6H26.9148C28.2659 31.6 29.3713 32.7077 29.3713 34.0615V41.9846H10.3022V34.0615C10.3022 32.7077 11.4077 31.6 12.7588 31.6Z" fill="#D4EDFC"/>
<path d="M38.5374 0.153809H27.1758C26.9148 0.153809 26.7152 0.353809 26.7152 0.615347V12.4615C26.7152 13.3077 27.4061 14 28.2506 14H38.998V0.615347C38.998 0.353809 38.7984 0.153809 38.5374 0.153809Z" fill="#2DCCCD"/>
<path d="M28.2506 14H30.6457L38.1382 0.153809H27.1758C26.9148 0.153809 26.7152 0.353809 26.7152 0.615347V12.4615C26.7152 13.3077 27.4061 14 28.2506 14Z" fill="url(#paint2_linear_747_8706)"/>
<path d="M38.9979 12.4615V14H40.5333C39.6888 14 38.9979 13.3077 38.9979 12.4615Z" fill="#2DCCCD"/>
<path d="M59.3722 33.9999H35.9734C35.5435 33.9999 35.2057 33.6614 35.2057 33.2307C35.2057 32.7999 35.5435 32.4614 35.9734 32.4614H59.3875C59.8174 32.4614 60.1552 32.7999 60.1552 33.2307C60.1552 33.6614 59.8021 33.9999 59.3722 33.9999Z" fill="#D4EDFC"/>
<path d="M59.3722 41.3076H35.9734C35.5435 41.3076 35.2057 40.9692 35.2057 40.5384C35.2057 40.1076 35.5435 39.7692 35.9734 39.7692H59.3875C59.8174 39.7692 60.1552 40.1076 60.1552 40.5384C60.1552 40.9692 59.8021 41.3076 59.3722 41.3076Z" fill="#D4EDFC"/>
<path d="M59.3722 37.6615H35.9734C35.5435 37.6615 35.2057 37.323 35.2057 36.8923C35.2057 36.4615 35.5435 36.123 35.9734 36.123H59.3875C59.8174 36.123 60.1552 36.4615 60.1552 36.8923C60.1552 37.323 59.8021 37.6615 59.3722 37.6615Z" fill="#D4EDFC"/>
<defs>
<linearGradient id="paint0_linear_747_8706" x1="27.1186" y1="10.2702" x2="56.8051" y2="65.9878" gradientUnits="userSpaceOnUse">
<stop stop-color="#192647" stop-opacity="0.5"/>
<stop offset="1" stop-color="#192647" stop-opacity="0"/>
</linearGradient>
<linearGradient id="paint1_linear_747_8706" x1="66.4809" y1="30.4614" x2="25.2106" y2="30.4614" gradientUnits="userSpaceOnUse">
<stop stop-color="#043263" stop-opacity="0.8"/>
<stop offset="1" stop-color="#043263" stop-opacity="0"/>
</linearGradient>
<linearGradient id="paint2_linear_747_8706" x1="16.3104" y1="-1.81748" x2="32.6611" y2="6.85973" gradientUnits="userSpaceOnUse">
<stop stop-color="white"/>
<stop offset="1" stop-color="white" stop-opacity="0.1"/>
</linearGradient>
</defs>
</svg>
