<svg width="24" height="24" viewBox="0 0 24 24" fill="none" xmlns="http://www.w3.org/2000/svg">
<path fill-rule="evenodd" clip-rule="evenodd" d="M1.11908 21.0312L11.4385 1.40164C11.7279 0.902187 12.1849 0.868207 12.4971 1.30161L12.5616 1.40164L22.881 21.0312C23.1729 21.5348 22.9092 21.9486 22.2913 21.9956L22.1713 22H1.82871C1.16795 22 0.84719 21.6165 1.07074 21.1246L11.4385 1.40164L1.11908 21.0312ZM12 17C11.2406 17 10.625 17.6156 10.625 18.375C10.625 19.1344 11.2406 19.75 12 19.75C12.7594 19.75 13.375 19.1344 13.375 18.375C13.375 17.6156 12.7594 17 12 17ZM11 8V15H13V9.75L11 8Z" fill="#B92A45"/>
</svg>
