<?xml version="1.0" encoding="UTF-8" standalone="no"?>
<svg width="36px" height="36px" viewBox="0 0 36 36" version="1.1" xmlns="http://www.w3.org/2000/svg" xmlns:xlink="http://www.w3.org/1999/xlink">
    <!-- Generator: Sketch 45.1 (43504) - http://www.bohemiancoding.com/sketch -->
    <title>user (1)</title>
    <desc>Created with Sketch.</desc>
    <defs>
        <rect id="path-1" x="0" y="0" width="36" height="36" rx="3"></rect>
    </defs>
    <g id="Page-1" stroke="none" stroke-width="1" fill="none" fill-rule="evenodd">
        <g id="02_DP_Components" transform="translate(-68.000000, -4201.000000)">
            <g id="user-(1)" transform="translate(68.000000, 4201.000000)">
                <mask id="mask-2" fill="white">
                    <use xlink:href="#path-1"></use>
                </mask>
                <use id="Mask" fill="#D4EDFC" xlink:href="#path-1"></use>
                <g mask="url(#mask-2)" id="Shape" fill-rule="nonzero" fill="#043263">
                    <g transform="translate(3.625000, 4.625000)">
                        <path d="M7.76223452,26.9554811 L1.49108058,30.3761826 C1.12307559,30.5768405 0.792346971,30.823499 0.484618663,31.0923647 C4.1408751,34.1751996 8.86069768,36.0350524 14.0175262,36.0350524 C19.1362852,36.0350524 23.8259694,34.2029586 27.4719154,31.1621587 C27.135635,30.8782239 26.7708024,30.6228411 26.3663142,30.4213901 L19.6510163,27.0641377 C18.7833494,26.6303042 18.2353075,25.7436026 18.2353075,24.7736239 L18.2353075,22.1388985 C18.4240687,21.9239646 18.6397957,21.6479609 18.8705919,21.3219909 C19.7858457,20.0292148 20.4782344,18.607161 20.9580685,17.1153132 C21.8193905,16.84962 22.4538819,16.0541264 22.4538819,15.1087343 L22.4538819,12.2963514 C22.4538819,11.6777223 22.1786713,11.1249217 21.7511827,10.737882 L21.7511827,6.67237862 C21.7511827,6.67237862 22.5863319,0.345706678 14.0183193,0.345706678 C5.45030664,0.345706678 6.28545589,6.67237862 6.28545589,6.67237862 L6.28545589,10.737882 C5.85717422,11.1249217 5.58275671,11.6777223 5.58275671,12.2963514 L5.58275671,15.1087343 C5.58275671,15.849503 5.97217578,16.5014428 6.55511471,16.8781721 C7.25781389,19.9372135 9.09783883,22.1388985 9.09783883,22.1388985 L9.09783883,24.7085885 C9.09704571,25.6444633 8.58469394,26.5065784 7.76223452,26.9554811 Z"></path>
                    </g>
                </g>
            </g>
        </g>
    </g>
</svg>