<svg width="24" height="24" viewBox="0 0 24 24" fill="none" xmlns="http://www.w3.org/2000/svg">
<path d="M17.3539 0.923096H3.87698C3.5832 0.923096 3.30146 1.0398 3.09372 1.24753C2.88599 1.45526 2.76929 1.73701 2.76929 2.03079V20.1231C2.76929 20.4169 2.88599 20.6986 3.09372 20.9064C3.30146 21.1141 3.5832 21.2308 3.87698 21.2308H9.50221C8.65626 19.8743 8.24482 18.2919 8.32299 16.6951C8.40115 15.0984 8.96518 13.5637 9.93957 12.2964C10.914 11.029 12.2522 10.0896 13.7752 9.60374C15.2982 9.1179 16.9333 9.10888 18.4616 9.57786V2.03079C18.4616 1.73701 18.3449 1.45526 18.1372 1.24753C17.9294 1.0398 17.6477 0.923096 17.3539 0.923096ZM9.23083 9.23079H5.53852V7.38463H11.077L9.23083 9.23079ZM12.0001 5.53848H5.53852V3.69233H14.2616L12.0001 5.53848Z" fill="white"/>
<path d="M20.9316 14.3566C21.2085 14.7932 22.03 15.011 22.1399 15.4993C22.2497 15.9876 21.6451 16.5904 21.6451 17.0778C21.6451 17.6233 22.2497 18.2233 22.1399 18.6563C22.031 19.1473 21.1513 19.3661 20.9316 19.8018C20.6547 20.2384 20.9316 21.0544 20.5494 21.4356C20.1673 21.8169 19.3411 21.5446 18.9027 21.8169C18.4642 22.0892 18.2427 22.908 17.7488 23.0169C17.255 23.1258 16.6504 22.523 16.1537 22.523C15.6571 22.523 14.9999 23.1775 14.5614 23.0686C14.0667 22.9587 13.847 22.0864 13.4076 21.8686C12.9682 21.5963 12.1439 21.8686 11.7599 21.4873C11.3759 21.1061 11.651 20.2873 11.375 19.8535C11.099 19.4196 10.2765 19.199 10.1667 18.708C10.0568 18.2169 10.6614 17.6178 10.6614 17.1295C10.6614 16.584 10.0568 15.984 10.1667 15.551C10.2756 15.0055 11.1008 14.7876 11.375 14.351C11.6491 13.9144 11.375 13.0966 11.7599 12.7181C12.1448 12.3396 12.9682 12.6083 13.4076 12.336C13.847 12.0636 14.0094 11.2486 14.5033 11.0843C14.9971 10.9753 15.6017 11.5753 16.0965 11.5753C16.5913 11.5753 17.2494 10.9753 17.7442 11.0843C18.239 11.1932 18.4577 12.0664 18.898 12.2843C19.3365 12.5612 20.1608 12.2843 20.5448 12.6664C20.9288 13.0486 20.6574 13.9209 20.9316 14.3566ZM11.9999 17.0769C11.9999 17.8984 12.2435 18.7015 12.6999 19.3846C13.1564 20.0677 13.8051 20.6001 14.5641 20.9145C15.3231 21.2289 16.1583 21.3112 16.9641 21.1509C17.7699 20.9906 18.51 20.595 19.091 20.0141C19.6719 19.4332 20.0675 18.693 20.2278 17.8873C20.388 17.0815 20.3058 16.2463 19.9914 15.4873C19.677 14.7283 19.1446 14.0795 18.4615 13.6231C17.7784 13.1667 16.9753 12.923 16.1537 12.923C15.053 12.9262 13.9983 13.3649 13.22 14.1432C12.4417 14.9215 12.0031 15.9762 11.9999 17.0769ZM13.3845 17.0769C13.3845 16.5292 13.5469 15.9938 13.8512 15.5384C14.1555 15.083 14.588 14.728 15.094 14.5184C15.6 14.3088 16.1568 14.254 16.694 14.3609C17.2312 14.4677 17.7246 14.7315 18.1119 15.1187C18.4992 15.506 18.7629 15.9995 18.8698 16.5366C18.9766 17.0738 18.9218 17.6306 18.7122 18.1366C18.5026 18.6426 18.1476 19.0751 17.6922 19.3794C17.2368 19.6837 16.7014 19.8461 16.1537 19.8461C15.7894 19.8484 15.4283 19.7784 15.0912 19.6401C14.7542 19.5017 14.448 19.2978 14.1904 19.0402C13.9328 18.7826 13.7289 18.4764 13.5906 18.1394C13.4522 17.8023 13.3822 17.4412 13.3845 17.0769Z" fill="white"/>
</svg>
