<?xml version="1.0" encoding="utf-8"?>
<!-- Generator: Adobe Illustrator 23.0.1, SVG Export Plug-In . SVG Version: 6.00 Build 0)  -->
<svg version="1.1" id="Capa_1" xmlns="http://www.w3.org/2000/svg" xmlns:xlink="http://www.w3.org/1999/xlink" x="0px" y="0px"
	 viewBox="0 0 600 600" style="enable-background:new 0 0 600 600;" xml:space="preserve">
<style type="text/css">
	.st0{fill:url(#SVGID_1_);}
	.st1{fill:#2DCCCD;}
	.st2{fill:url(#SVGID_2_);}
	.st3{fill:#FFFFFF;}
	.st4{fill:#F8CD50;}
	.st5{fill:url(#SVGID_3_);}
</style>
<title>Mesa de trabajo 1 copia 20</title>
<linearGradient id="SVGID_1_" gradientUnits="userSpaceOnUse" x1="162.5847" y1="442.4463" x2="401.0748" y2="890.9762" gradientTransform="matrix(1 0 0 1 0 -400)">
	<stop  offset="0" style="stop-color:#192647"/>
	<stop  offset="0" style="stop-color:#192647;stop-opacity:0.5"/>
	<stop  offset="1" style="stop-color:#192647;stop-opacity:0"/>
</linearGradient>
<path class="st0" d="M532,406.4V172.9c0-12.7-10.3-23-23-23H268.3c-23.9,0-43.3,19.4-43.3,43.3l0,0V303h-73.7
	c-19.5,0-35.3,15.8-35.3,35.2l0,0v137.4v48.5c0,1.7,1.3,3,3,3c0.8,0,1.6-0.3,2.1-0.9l36.3-36.2H343c12.7,0,23-10.3,23-23v-87.5
	h115.2l41.2,41.1c2.2,2.2,5.8,2.2,8,0c1.1-1.1,1.6-2.5,1.6-4V406.4z"/>
<path class="st1" d="M89,254.1h191.7c19.5,0,35.3,15.8,35.3,35.3v128.8c0,12.7-10.3,23-23,23l0,0H107.4l-36.3,36.2
	c-1.2,1.2-3.1,1.2-4.2,0c-0.6-0.6-0.9-1.3-0.9-2.1v-48.5V277.1C66,264.4,76.3,254.1,89,254.1z"/>
<linearGradient id="SVGID_2_" gradientUnits="userSpaceOnUse" x1="351" y1="747.65" x2="154.7" y2="747.65" gradientTransform="matrix(1 0 0 1 -35 -400)">
	<stop  offset="0" style="stop-color:#028484;stop-opacity:0.4"/>
	<stop  offset="1" style="stop-color:#028484;stop-opacity:0"/>
</linearGradient>
<path class="st2" d="M280.7,254.1h-29.4L119.7,441.2H293c12.7,0,23-10.3,23-23l0,0V289.3C316,269.9,300.2,254.1,280.7,254.1z"/>
<g>
	<path class="st3" d="M266.9,351.7H115.1c-2.8,0-5-2.2-5-5s2.2-5,5-5h151.8c2.8,0,5,2.2,5,5S269.7,351.7,266.9,351.7z"/>
</g>
<g>
	<path class="st3" d="M266.9,321.7H115.1c-2.8,0-5-2.2-5-5s2.2-5,5-5h151.8c2.8,0,5,2.2,5,5S269.7,321.7,266.9,321.7z"/>
</g>
<g>
	<path class="st3" d="M194.1,381.5h-79c-2.8,0-5-2.2-5-5s2.2-5,5-5h79c2.8,0,5,2.2,5,5S196.9,381.5,194.1,381.5z"/>
</g>
<path class="st4" d="M459,100.9H198c-12.7,0-23,10.3-23,23v183.8c0,12.7,10.3,23,23,23l0,0h233.2l45.7,45.7c1.2,1.2,3.1,1.2,4.2,0
	c0.6-0.6,0.9-1.3,0.9-2.1v-16.8V123.9C482,111.2,471.7,100.9,459,100.9L459,100.9z"/>
<linearGradient id="SVGID_3_" gradientUnits="userSpaceOnUse" x1="481.9007" y1="639.1" x2="240.9" y2="639.1" gradientTransform="matrix(1 0 0 1 0 -400)">
	<stop  offset="0" style="stop-color:#C49735;stop-opacity:0.4"/>
	<stop  offset="1" style="stop-color:#C49735;stop-opacity:0"/>
</linearGradient>
<path class="st5" d="M459,100.9h-56.5L240.9,330.7h190.2l45.7,45.7c1.2,1.2,3.1,1.2,4.2,0c0.6-0.6,0.9-1.3,0.9-2.1V359V124
	C482,111.2,471.7,100.9,459,100.9L459,100.9z"/>
<g>
	<path class="st3" d="M421.7,220.3H235.3c-2.8,0-5-2.2-5-5s2.2-5,5-5h186.4c2.8,0,5,2.2,5,5S424.5,220.3,421.7,220.3z"/>
</g>
<g>
	<path class="st3" d="M421.7,190.3H235.3c-2.8,0-5-2.2-5-5s2.2-5,5-5h186.4c2.8,0,5,2.2,5,5S424.5,190.3,421.7,190.3z"/>
</g>
<g>
	<path class="st3" d="M332.2,250.3h-96.9c-2.8,0-5-2.2-5-5s2.2-5,5-5h96.9c2.8,0,5,2.2,5,5S335,250.3,332.2,250.3z"/>
</g>
</svg>
