<svg width="17" height="23" viewBox="0 0 17 23" fill="none" xmlns="http://www.w3.org/2000/svg">
<path fill-rule="evenodd" clip-rule="evenodd" d="M0.35498 1.8369V21.4984C0.35498 21.8307 0.724211 22.1446 1.05652 22.1446H5.98575V17.8061H10.5088V22.1446H15.5396C15.8719 22.1446 16.0473 21.84 16.0473 21.2215V0.913818L0.35498 1.8369ZM4.97037 14.76H2.20113V11.9907H4.97037V14.76ZM4.97037 10.0523H2.20113V7.37536H4.97037V10.0523ZM9.58575 14.76H6.81652V11.9907H9.58575V14.76ZM9.58575 10.0523H6.81652V7.37536H9.58575V10.0523ZM14.2011 14.76H11.4319V11.9907H14.2011V14.76ZM14.2011 10.0523H11.4319V7.37536H14.2011V10.0523Z" fill="white"/>
</svg>
