<svg width="24" height="24" viewBox="0 0 24 24" fill="none" xmlns="http://www.w3.org/2000/svg">
<g clip-path="url(#clip0_1450_3726)">
<path d="M13.1538 6.58152C14.2002 6.80545 15.1595 7.32716 15.9161 8.08381C16.6728 8.84046 17.1945 9.79976 17.4184 10.8461H23.0215C22.7559 8.32078 21.6306 5.96337 19.8343 4.16867C18.0379 2.37396 15.6794 1.25094 13.1538 0.987671V6.58152Z" fill="white"/>
<path d="M7.35698 15.0093C6.86646 14.2561 6.56699 13.3947 6.48451 12.4996C6.40203 11.6046 6.53903 10.703 6.88363 9.87281C7.22824 9.04267 7.77006 8.30907 8.46215 7.73557C9.15424 7.16207 9.97573 6.76597 10.8554 6.58159V0.978516C4.76313 1.62467 0.341595 7.07082 0.987749 13.1539C1.21168 15.2873 2.04844 17.3103 3.39698 18.9785L7.35698 15.0093Z" fill="white"/>
<path d="M17.4184 13.1538C17.2671 13.8655 16.977 14.5403 16.5647 15.1398C16.1525 15.7394 15.6262 16.2518 15.0158 16.6478C14.4055 17.0438 13.7231 17.3157 13.0076 17.448C12.2922 17.5802 11.5577 17.5702 10.8461 17.4184C10.1839 17.2761 9.55246 17.0166 8.98148 16.6523L5.02148 20.6123C6.57131 21.8681 8.43147 22.682 10.4056 22.9682C12.3796 23.2545 14.3944 23.0023 16.237 22.2384C18.0797 21.4745 19.6819 20.2272 20.8744 18.6282C22.0669 17.0292 22.8055 15.1378 23.0123 13.1538H17.4184Z" fill="white"/>
</g>
<defs>
<clipPath id="clip0_1450_3726">
<rect width="24" height="24" fill="white"/>
</clipPath>
</defs>
</svg>
