<svg width="24" height="24" viewBox="0 0 24 24" fill="none" xmlns="http://www.w3.org/2000/svg">
<path d="M5.53848 11.0769L3.69233 9.23072H21.2308V6.64611C21.2308 6.35233 21.1141 6.07058 20.9064 5.86285C20.6986 5.65512 20.4169 5.53841 20.1231 5.53841H7.38463L5.53848 3.69226H2.03079C1.73701 3.69226 1.45526 3.80896 1.24753 4.0167C1.0398 4.22443 0.923096 4.50617 0.923096 4.79995V19.2C0.923096 19.4937 1.0398 19.7755 1.24753 19.9832C1.45526 20.1909 1.73701 20.3076 2.03079 20.3076H20.3077C20.5667 20.3092 20.8179 20.2193 21.0172 20.0538C21.2164 19.8883 21.3509 19.6579 21.3969 19.403L23.0585 12.3692C23.0853 12.2106 23.0772 12.0481 23.0349 11.8929C22.9925 11.7377 22.9169 11.5937 22.8133 11.4707C22.7096 11.3477 22.5804 11.2488 22.4347 11.1808C22.2889 11.1128 22.1301 11.0773 21.9692 11.0769H5.53848Z" fill="white"/>
</svg>
