<svg width="20" height="20" viewBox="0 0 20 20" fill="none" xmlns="http://www.w3.org/2000/svg">
<g clip-path="url(#clip0_1414_4624)">
<path fill-rule="evenodd" clip-rule="evenodd" d="M10.0001 0.769287C8.17439 0.769287 6.38971 1.31066 4.87172 2.32495C3.35373 3.33924 2.1706 4.78089 1.47194 6.46759C0.773287 8.1543 0.590487 10.0103 0.946658 11.8009C1.30283 13.5915 2.18197 15.2363 3.47292 16.5272C4.76387 17.8181 6.40863 18.6973 8.19923 19.0535C9.98982 19.4096 11.8458 19.2268 13.5325 18.5282C15.2192 17.8295 16.6609 16.6464 17.6752 15.1284C18.6895 13.6104 19.2308 11.8257 19.2308 10.0001C19.2308 8.78785 18.9921 7.58752 18.5282 6.46759C18.0643 5.34767 17.3844 4.33007 16.5272 3.47292C15.67 2.61576 14.6525 1.93583 13.5325 1.47194C12.4126 1.00805 11.2123 0.769287 10.0001 0.769287ZM9.97698 16.1539L5.23083 11.4077L6.33083 10.3077L9.20775 13.1924L9.17698 3.84621L10.6924 5.38467V13.2154L13.6462 10.277L14.7539 11.377L9.97698 16.1539Z" fill="#1973B8"/>
</g>
<defs>
<clipPath id="clip0_1414_4624">
<rect width="20" height="20" fill="white"/>
</clipPath>
</defs>
</svg>
