<svg width="128" height="40" viewBox="0 0 128 40" fill="none" xmlns="http://www.w3.org/2000/svg">
<path fill-rule="evenodd" clip-rule="evenodd" d="M51.8468 23.3417C51.7064 23.5914 51.6831 23.6959 51.3849 23.812C51.2621 23.8353 51.1451 23.8353 51.0224 23.812C50.7125 23.7017 50.6774 23.5217 50.5546 23.2895L40.1766 3.93099C40.0889 3.78002 40.0012 3.62905 39.9837 3.44906C39.9837 3.44906 39.8902 2.94971 40.4047 2.94971C41.5156 2.94971 42.4452 2.97874 43.4625 2.97874C43.7958 2.97293 44.0004 3.07164 44.1524 3.33293L50.7885 16.0373C50.923 16.2231 50.9522 16.2637 51.0458 16.3683C51.2796 16.4612 51.455 16.3915 51.5895 16.1302L58.0852 3.83808C58.0852 3.83808 58.4828 2.96713 58.8746 2.96713C59.9211 2.97293 60.9268 3.02519 61.9733 3.02519C62.4352 3.02519 62.4352 3.38519 62.4118 3.47809C62.0961 4.02969 61.9616 4.31421 61.8389 4.59291L51.8468 23.3417Z" fill="white"/>
<path fill-rule="evenodd" clip-rule="evenodd" d="M69.0363 0.487736C69.1766 0.238062 69.2 0.133547 69.4982 0.0174191C69.6209 -0.00580638 69.7379 -0.00580638 69.8607 0.0174191C70.1705 0.12774 70.2056 0.307738 70.3284 0.539994L80.7005 19.9043C80.7882 20.0552 80.8759 20.2062 80.8935 20.3862C80.8935 20.3862 80.987 20.8856 80.4725 20.8856C79.3616 20.8856 78.432 20.8565 77.4147 20.8565C77.0814 20.8623 76.8768 20.7636 76.7247 20.5023L70.0887 7.79797C69.9542 7.61217 69.925 7.57152 69.8314 7.46701C69.5976 7.37411 69.4222 7.44378 69.2877 7.70507L62.8036 19.9972C62.8036 19.9972 62.4061 20.8681 62.0143 20.8681C60.9678 20.8623 59.9621 20.8101 58.9155 20.8101C58.4537 20.8101 58.4537 20.4501 58.477 20.3572C58.7928 19.8056 58.9272 19.5211 59.05 19.2424L69.0363 0.487736Z" fill="white"/>
<path d="M39.3815 15.2824C39.1243 14.7076 38.6156 14.0979 38.2999 13.7379C37.8263 13.285 37.4638 12.9773 36.8148 12.7508C36.8557 12.6463 36.92 12.6231 36.9785 12.5882C37.493 12.2689 37.8906 11.8334 38.2005 11.3224C38.6858 10.5153 38.9372 9.6502 38.9138 8.70376C38.8495 8.4657 38.943 8.23344 38.9138 7.98957C38.8027 7.00829 38.4519 6.12572 37.8672 5.33025C37.8263 5.27219 37.7737 5.21993 37.721 5.16767C37.4229 4.88896 37.1656 4.58123 36.8265 4.34316C36.7037 4.25607 36.5751 4.17478 36.4523 4.08768C35.9495 3.74511 35.3882 3.54188 34.8094 3.3793C34.7158 3.35608 34.6223 3.32124 34.5287 3.2864C33.8329 3.13544 33.1313 3.11221 32.418 3.12382C29.2783 3.15286 26.1445 3.13544 23.0048 3.13544C22.8878 3.13544 22.7709 3.14705 22.654 3.11221C22.2505 2.97866 21.8354 3.34447 21.9465 3.75672C22.0225 3.9251 22.04 4.1051 22.04 4.29091C22.04 10.225 22.04 16.1592 22.0342 22.0933C22.0342 22.6042 22.0693 23.1152 21.9874 23.6262C22.0108 23.8294 22.1277 23.9455 22.3324 23.9687C25.5364 23.9804 32.1842 23.9978 32.5934 23.9978C33.3711 23.9978 35.0783 23.7713 35.5285 23.6087C37.3878 22.941 39.7908 21.3559 39.7908 18.8185C39.8317 18.5514 40.0071 16.5888 39.3815 15.2824ZM25.5247 6.70636C25.5247 6.32314 25.6592 6.18959 26.0509 6.18959C28.1265 6.18959 30.2021 6.18959 32.2777 6.20121C32.6694 6.20121 35.3531 6.46249 35.3765 8.85472C35.394 10.5212 34.5521 11.5895 33.1196 11.5895C32.4473 11.5895 27.1326 11.5953 26.0509 11.5953C25.6416 11.5953 25.5247 11.485 25.5247 11.0902C25.5247 9.62697 25.5247 8.16957 25.5247 6.70636ZM34.1838 20.6997C33.8622 20.7752 31.1961 20.903 30.2138 20.903C28.1616 20.9088 28.1616 20.903 26.1094 20.903C25.6124 20.903 25.513 20.8043 25.513 20.3107C25.513 18.6211 25.513 16.9256 25.513 15.2359C25.513 14.7366 25.63 14.6205 26.1269 14.6205C27.2787 14.6205 28.8223 14.6205 30.1612 14.6205C31.1376 14.6379 33.3886 14.5566 34.5346 14.9456C35.5577 15.294 36.3587 16.1243 36.3587 17.7385C36.3587 19.2598 35.3063 20.4268 34.1838 20.6997Z" fill="white"/>
<path d="M18.4443 15.1371C17.8362 13.9759 16.5265 12.832 15.8775 12.6055C15.9185 12.501 15.9828 12.4778 16.0412 12.443C16.5558 12.1236 16.9533 11.6881 17.2632 11.1772C17.7485 10.3701 17.9999 9.50493 17.9765 8.55849C17.9122 8.32043 18.0058 8.08818 17.9765 7.84431C17.8654 6.86303 17.5146 5.98046 16.9299 5.18499C16.889 5.12692 16.8364 5.07466 16.7838 5.02241C16.4856 4.7437 16.2283 4.43596 15.8892 4.1979C15.7664 4.1108 15.6378 4.02952 15.515 3.94242C15.0122 3.59984 14.4509 3.39662 13.8721 3.23404C13.7785 3.21082 13.685 3.17598 13.5915 3.14114C12.8957 2.99017 12.1941 2.96695 11.4808 2.97856C8.34107 3.00759 5.20721 2.99017 2.06751 2.99017C1.95057 2.99017 1.83364 3.00179 1.7167 2.96695C1.31328 2.8334 0.898158 3.1992 1.00925 3.61146C1.08525 3.77984 1.10279 3.95984 1.10279 4.14564C1.10279 10.0798 1.10279 16.0139 1.09695 21.948C1.09695 22.459 1.13203 22.9699 1.05017 23.4809C1.07356 23.6841 1.1905 23.8002 1.39513 23.8235C4.59915 23.8351 11.2469 23.8525 11.6562 23.8525C12.4338 23.8525 14.141 23.6261 14.5912 23.4635C16.4505 22.7957 18.5144 21.1874 18.8535 18.6732C18.988 17.8139 19.1049 16.3971 18.4443 15.1371ZM4.5933 6.5611C4.5933 6.17788 4.72778 6.04433 5.11951 6.04433C7.19511 6.04433 9.2707 6.04433 11.3463 6.05594C11.738 6.05594 14.4217 6.31723 14.4451 8.70946C14.4626 10.3759 13.5154 11.1714 12.1005 11.3862C11.4808 11.4791 6.20116 11.4501 5.11951 11.4501C4.71024 11.4501 4.5933 11.3398 4.5933 10.9449C4.58746 9.48171 4.58746 8.02431 4.5933 6.5611ZM13.2523 20.5545C12.9308 20.63 10.2647 20.7577 9.2824 20.7577C7.23019 20.7635 7.23019 20.7577 5.17798 20.7577C4.68101 20.7577 4.58161 20.659 4.58161 20.1655C4.58161 18.4758 4.58161 16.7803 4.58161 15.0907C4.58161 14.5913 4.69855 14.4752 5.19552 14.4752C6.34733 14.4752 7.89087 14.4752 9.22978 14.4752C10.2062 14.4926 12.4572 14.4113 13.6031 14.8004C14.6263 15.1487 15.4273 15.9791 15.4273 17.5932C15.4273 19.1145 14.3691 20.2816 13.2523 20.5545Z" fill="white"/>
<path d="M58.508 36V32.22H61.736L61.52 30.888H58.508V28.512H62.6V27.12H57.008V36H58.508ZM64.6044 28.692C65.1564 28.692 65.4684 28.356 65.4684 27.912C65.4684 27.468 65.1564 27.132 64.6044 27.132C64.0644 27.132 63.7644 27.468 63.7644 27.912C63.7644 28.356 64.0644 28.692 64.6044 28.692ZM65.3484 36V29.64H63.8844V36H65.3484ZM68.5579 36V31.968C68.9659 31.284 69.6499 30.84 70.6219 30.84C70.7179 30.84 70.9099 30.84 71.0059 30.864L70.8739 29.508H70.8139C69.6259 29.508 68.9539 30.072 68.5699 30.672H68.5579L68.4379 29.64H67.0819V36H68.5579ZM73.4915 36V31.596C74.0315 31.092 74.5355 30.768 75.1235 30.768C75.8195 30.768 76.0235 31.116 76.0235 31.8V36H77.4995V31.596C78.0395 31.092 78.5315 30.768 79.1315 30.768C79.8275 30.768 80.0315 31.116 80.0315 31.8V36H81.5075V31.428C81.5075 30.288 80.9435 29.508 79.6475 29.508C78.6755 29.508 77.9075 30.024 77.4275 30.54C77.2595 29.916 76.7435 29.508 75.6755 29.508C74.6915 29.508 73.9475 30.012 73.4915 30.54L73.3715 29.64H72.0155V36H73.4915ZM85.0334 34.956C84.4814 34.956 84.1334 34.692 84.1334 34.188C84.1334 33.552 84.7934 33.108 86.8454 32.82V34.224C86.3894 34.68 85.7894 34.956 85.0334 34.956ZM84.5054 36.096C85.4534 36.096 86.2334 35.808 86.8454 35.184L86.9654 36H88.2854V31.812C88.2854 30.324 87.5774 29.508 85.9334 29.508C84.4694 29.508 83.5574 30.048 82.8854 30.672L83.6894 31.572C84.2774 31.08 84.9134 30.72 85.7414 30.72C86.4974 30.72 86.8454 31.044 86.8454 31.632V31.824C83.8694 32.16 82.6934 33.024 82.6934 34.428C82.6934 35.472 83.4614 36.096 84.5054 36.096ZM95.5503 34.884C94.6023 34.884 94.0263 34.152 94.0263 32.844C94.0263 31.416 94.6263 30.732 95.5263 30.732C96.1383 30.732 96.5823 30.996 97.0983 31.5V34.092C96.6543 34.548 96.1623 34.884 95.5503 34.884ZM95.0703 36.096C96.0183 36.096 96.6663 35.7 97.0983 35.16L97.2183 36H98.5743V27.012L97.0983 27.228V30.36C96.6543 29.808 95.9583 29.508 95.0943 29.508C93.6303 29.508 92.5503 30.648 92.5503 32.856C92.5503 35.064 93.6183 36.096 95.0703 36.096ZM101.026 28.692C101.578 28.692 101.89 28.356 101.89 27.912C101.89 27.468 101.578 27.132 101.026 27.132C100.486 27.132 100.186 27.468 100.186 27.912C100.186 28.356 100.486 28.692 101.026 28.692ZM101.77 36V29.64H100.306V36H101.77ZM105.94 33.036C105.124 33.036 104.632 32.616 104.632 31.836C104.632 31.056 105.112 30.612 105.928 30.612C106.768 30.612 107.224 31.044 107.224 31.836C107.224 32.616 106.744 33.036 105.94 33.036ZM105.904 38.472C107.872 38.472 109.192 37.836 109.192 36.528C109.192 35.412 108.448 34.908 106.564 34.788L105.436 34.716C104.872 34.668 104.704 34.584 104.704 34.332C104.704 34.164 104.836 34.032 105.028 33.924C105.34 34.008 105.556 34.056 105.916 34.056C107.572 34.056 108.568 33.12 108.568 31.788C108.568 31.452 108.484 31.152 108.34 30.924C108.784 30.78 109.216 30.744 109.516 30.744L109.324 29.556C108.832 29.604 108.256 29.868 107.872 30.18C107.44 29.796 106.792 29.508 105.916 29.508C104.248 29.508 103.24 30.48 103.24 31.788C103.24 32.568 103.6 33.216 104.248 33.624C103.768 33.912 103.384 34.308 103.384 34.788C103.384 35.136 103.552 35.4 103.876 35.568C103.228 35.82 102.832 36.276 102.832 36.912C102.832 37.836 103.708 38.472 105.904 38.472ZM106.132 37.404C104.836 37.404 104.188 37.224 104.188 36.66C104.188 36.336 104.356 36.036 104.776 35.844C104.908 35.868 105.028 35.88 105.16 35.88L106.264 35.952C107.56 36.036 107.884 36.204 107.884 36.66C107.884 37.116 107.212 37.404 106.132 37.404ZM111.433 28.692C111.985 28.692 112.297 28.356 112.297 27.912C112.297 27.468 111.985 27.132 111.433 27.132C110.893 27.132 110.593 27.468 110.593 27.912C110.593 28.356 110.893 28.692 111.433 28.692ZM112.177 36V29.64H110.713V36H112.177ZM116.346 36.084C116.742 36.084 117.33 36.024 117.51 35.988L117.39 34.824C117.21 34.872 116.982 34.92 116.742 34.92C116.142 34.92 115.854 34.704 115.854 34.02V30.804H117.498V29.64H115.854V27.3L114.39 27.516V29.64H113.31V30.804H114.39V34.248C114.39 35.628 115.002 36.084 116.346 36.084ZM120.635 34.956C120.083 34.956 119.735 34.692 119.735 34.188C119.735 33.552 120.395 33.108 122.447 32.82V34.224C121.991 34.68 121.391 34.956 120.635 34.956ZM120.107 36.096C121.055 36.096 121.835 35.808 122.447 35.184L122.567 36H123.887V31.812C123.887 30.324 123.179 29.508 121.535 29.508C120.071 29.508 119.159 30.048 118.487 30.672L119.291 31.572C119.879 31.08 120.515 30.72 121.343 30.72C122.099 30.72 122.447 31.044 122.447 31.632V31.824C119.471 32.16 118.295 33.024 118.295 34.428C118.295 35.472 119.063 36.096 120.107 36.096ZM127.024 36V27.012L125.56 27.228V36H127.024Z" fill="#49A5E6"/>
</svg>
