<svg width="21" height="22" viewBox="0 0 21 22" fill="none" xmlns="http://www.w3.org/2000/svg">
<path fill-rule="evenodd" clip-rule="evenodd" d="M0.518066 1.85278C0.520237 1.58636 0.627037 1.33146 0.815432 1.14307C1.00383 0.954674 1.25872 0.847874 1.52514 0.845703H19.8187C20.0851 0.847874 20.34 0.954674 20.5284 1.14307C20.7168 1.33146 20.8236 1.58636 20.8258 1.85278V20.1463C20.8236 20.4127 20.7168 20.6676 20.5284 20.856C20.34 21.0444 20.0851 21.1512 19.8187 21.1534H1.52514C1.25872 21.1512 1.00383 21.0444 0.815432 20.856C0.627037 20.6676 0.520237 20.4127 0.518066 20.1463V1.85278ZM14.7334 10.9995V19.1226H18.795V6.93801L14.7334 10.9995ZM8.64114 6.93801V19.1226H12.7027V2.87647L8.64114 6.93801ZM2.54884 15.0611V19.1226H6.61037V10.9995L2.54884 15.0611Z" fill="white"/>
</svg>
