<svg width="120" height="120" viewBox="0 0 120 120" fill="none" xmlns="http://www.w3.org/2000/svg">
<g clip-path="url(#clip0_590_6366)">
<path d="M67.06 105.14C88.3451 105.14 105.6 87.8851 105.6 66.6001C105.6 45.315 88.3451 28.0601 67.06 28.0601C45.775 28.0601 28.52 45.315 28.52 66.6001C28.52 87.8851 45.775 105.14 67.06 105.14Z" fill="url(#paint0_linear_590_6366)"/>
<path d="M60.0001 97.5801C81.473 97.5801 98.8801 80.1729 98.8801 58.7001C98.8801 37.2272 81.473 19.8201 60.0001 19.8201C38.5273 19.8201 21.1201 37.2272 21.1201 58.7001C21.1201 80.1729 38.5273 97.5801 60.0001 97.5801Z" fill="#9C6C01"/>
<path d="M60 68.1C58.4 68.1 57.1 66.8 57.1 65.2V41C57.06 39.4 58.32 38.08 59.92 38.02C61.52 37.98 62.84 39.24 62.9 40.84C62.9 40.9 62.9 40.94 62.9 41V65.2C62.9 66.8 61.6 68.1 60 68.1Z" fill="white"/>
<path d="M60.0001 79.3799C61.8668 79.3799 63.3801 77.8666 63.3801 75.9999C63.3801 74.1331 61.8668 72.6199 60.0001 72.6199C58.1334 72.6199 56.6201 74.1331 56.6201 75.9999C56.6201 77.8666 58.1334 79.3799 60.0001 79.3799Z" fill="white"/>
</g>
<defs>
<linearGradient id="paint0_linear_590_6366" x1="47.2631" y1="29.3565" x2="83.7391" y2="97.9565" gradientUnits="userSpaceOnUse">
<stop stop-color="#072146" stop-opacity="0.5"/>
<stop offset="1" stop-color="#072146" stop-opacity="0"/>
</linearGradient>
<clipPath id="clip0_590_6366">
<rect width="120" height="120" fill="white"/>
</clipPath>
</defs>
</svg>
