<svg width="150" height="150" viewBox="0 0 150 150" fill="none" xmlns="http://www.w3.org/2000/svg">
<g clip-path="url(#clip0_546_6323)">
<path d="M126.817 118.655V66.6051L113.5 53.4001L101.332 41.3601H50.3325C49.8975 41.3601 49.545 41.7101 49.545 42.1401V42.1426V141.153C49.545 141.583 49.8975 141.933 50.3325 141.933H103.83C108.7 149.86 119.13 152.373 127.125 147.543C135.12 142.713 137.652 132.37 132.782 124.443C131.31 122.053 129.26 120.063 126.817 118.655Z" fill="url(#paint0_linear_546_6323)"/>
<path d="M112.52 51.795L86.98 26.25H36.7525C36.28 26.2525 35.895 26.6375 35.8924 27.11V126.08C35.885 126.505 36.225 126.855 36.65 126.863C36.6575 126.863 36.6675 126.863 36.675 126.863H111.743C112.168 126.87 112.518 126.533 112.528 126.107C112.528 126.097 112.528 126.09 112.528 126.08L112.52 51.795Z" fill="#CDEEFE"/>
<path d="M91.4125 30.9424L39.385 126.86L110.438 127.12H111.74C112.165 127.127 112.515 126.79 112.525 126.365C112.525 126.355 112.525 126.347 112.525 126.337V52.0549L91.4125 30.9424Z" fill="url(#paint1_linear_546_6323)"/>
<path d="M87.945 51.795H112.52L86.98 26.25V50.8275C86.9675 51.35 87.3825 51.7825 87.9025 51.7925C87.9175 51.795 87.93 51.795 87.945 51.795Z" fill="#49A5E6"/>
<path d="M123.795 118.932C123.795 128.44 116.087 136.145 106.582 136.145C97.0775 136.145 89.37 128.437 89.37 118.932C89.37 109.427 97.0775 101.72 106.582 101.72C116.087 101.72 123.795 109.427 123.795 118.932Z" fill="#28AD68"/>
<path d="M103.598 127.22C103.253 127.214 102.924 127.071 102.683 126.824L97.3447 121.485C96.8251 120.962 96.8251 120.117 97.3447 119.594H97.3752C97.6162 119.348 97.946 119.21 98.2904 119.21C98.6347 119.21 98.9645 119.348 99.2055 119.594L103.598 123.987L115.159 112.425C115.657 111.88 116.502 111.839 117.051 112.334C117.6 112.842 117.641 113.697 117.142 114.256L117.051 114.317L104.544 126.824C104.293 127.076 103.953 127.218 103.598 127.22Z" fill="white"/>
<g opacity="0.35">
<path d="M72.2394 39.6414H46.2495C45.8986 39.6339 45.5661 39.4828 45.3297 39.2234C45.0933 38.9639 44.9737 38.6188 44.9988 38.2687C45.0297 37.5911 45.572 37.0489 46.2495 37.018H72.2394C72.9581 37 73.5634 37.5515 73.6121 38.2687C73.6287 38.6167 73.5062 38.957 73.2715 39.2145C73.0369 39.472 72.7095 39.6256 72.3615 39.6414H72.2394Z" fill="#49A5E6"/>
<path d="M72.2394 46.993H46.2495C45.8986 46.9855 45.5661 46.8344 45.3297 46.5749C45.0933 46.3155 44.9737 45.9704 44.9988 45.6203C45.0297 44.9427 45.572 44.4004 46.2495 44.3696H72.2394C72.9581 44.3516 73.5634 44.903 73.6121 45.6203C73.6287 45.9682 73.5062 46.3085 73.2715 46.566C73.0369 46.8236 72.7095 46.9772 72.3615 46.993H72.2394Z" fill="#49A5E6"/>
<path d="M64.0032 115.232H46.158C45.4336 115.232 44.8463 114.645 44.8463 113.92C44.8463 113.196 45.4336 112.608 46.158 112.608H64.0032C64.3511 112.608 64.6847 112.747 64.9307 112.993C65.1767 113.239 65.3149 113.572 65.3149 113.92C65.3149 114.268 65.1767 114.602 64.9307 114.848C64.6847 115.094 64.3511 115.232 64.0032 115.232Z" fill="#49A5E6"/>
<path d="M74.5883 74.2945H53.8452C53.4972 74.2787 53.1697 74.1251 52.9351 73.8676C52.7005 73.6101 52.5779 73.2698 52.5945 72.9218C52.6253 72.2443 53.1676 71.702 53.8452 71.6711H74.5883C74.9363 71.687 75.2638 71.8406 75.4984 72.0981C75.733 72.3556 75.8556 72.6959 75.839 73.0438C75.8082 73.7214 75.2659 74.2637 74.5883 74.2945Z" fill="#49A5E6"/>
<path d="M74.5883 81.6461H53.8452C53.4972 81.6303 53.1697 81.4767 52.9351 81.2192C52.7005 80.9617 52.5779 80.6214 52.5945 80.2734C52.6253 79.5958 53.1676 79.0535 53.8452 79.0227H74.5883C74.9363 79.0385 75.2638 79.1921 75.4984 79.4496C75.733 79.7072 75.8556 80.0474 75.839 80.3954C75.8082 81.073 75.2659 81.6153 74.5883 81.6461Z" fill="#49A5E6"/>
<path d="M74.5883 88.9979H53.8451C53.1207 88.9979 52.5334 88.4106 52.5334 87.6862C52.5334 86.9618 53.1207 86.3745 53.8451 86.3745H74.5883C75.3127 86.3745 75.9 86.9618 75.9 87.6862C75.9 88.4106 75.3127 88.9979 74.5883 88.9979Z" fill="#49A5E6"/>
<path d="M74.5883 96.3495H53.8451C53.1207 96.3495 52.5334 95.7622 52.5334 95.0378C52.5334 94.3133 53.1207 93.7261 53.8451 93.7261H74.5883C74.9363 93.7419 75.2637 93.8955 75.4983 94.153C75.733 94.4105 75.8555 94.7508 75.839 95.0988C75.8081 95.7763 75.2658 96.3186 74.5883 96.3495Z" fill="#49A5E6"/>
<path d="M100.304 64.0452H46.2495C45.9017 64.0452 45.568 64.1834 45.322 64.4294C45.076 64.6753 44.9379 65.009 44.9379 65.3569V102.115C44.9208 102.462 45.0492 102.801 45.2923 103.05C45.5354 103.299 45.8712 103.435 46.219 103.427H100.304C100.649 103.435 100.982 103.303 101.229 103.062C101.476 102.821 101.616 102.491 101.616 102.145V65.3569C101.624 65.0118 101.492 64.678 101.251 64.4311C101.01 64.1842 100.679 64.0452 100.334 64.0452H100.304ZM47.5307 66.6686H80.9028V100.803H47.5612L47.5307 66.6686ZM98.992 100.803H83.5262V66.6686H98.992V100.803Z" fill="#49A5E6"/>
</g>
</g>
<defs>
<linearGradient id="paint0_linear_546_6323" x1="1628.05" y1="-1082.46" x2="7767.12" y2="10463.7" gradientUnits="userSpaceOnUse">
<stop stop-color="#192647" stop-opacity="0.5"/>
<stop offset="1" stop-color="#192647" stop-opacity="0"/>
</linearGradient>
<linearGradient id="paint1_linear_546_6323" x1="7353.4" y1="4839.84" x2="39.365" y2="4839.84" gradientUnits="userSpaceOnUse">
<stop stop-color="#043263" stop-opacity="0.1"/>
<stop offset="1" stop-color="#043263" stop-opacity="0"/>
</linearGradient>
<clipPath id="clip0_546_6323">
<rect width="150" height="150" fill="white"/>
</clipPath>
</defs>
</svg>
