<svg width="121" height="137" viewBox="0 0 121 137" fill="none" xmlns="http://www.w3.org/2000/svg">
<path d="M95.7192 17.7024H47.6418C47.5351 17.7024 47.4295 17.7234 47.3309 17.7642C47.2323 17.8051 47.1427 17.8649 47.0673 17.9404C46.9918 18.0158 46.932 18.1054 46.8911 18.204C46.8503 18.3026 46.8293 18.4082 46.8293 18.5149V42.8176C41.2906 43.9769 36.1943 46.6831 32.1316 50.6222C28.069 54.5613 25.2068 59.5717 23.877 65.0719C22.5472 70.5722 22.8045 76.3367 24.6189 81.6967C26.4334 87.0566 29.7306 91.7921 34.128 95.3536L16.1906 126.423C16.0265 126.333 15.8334 126.311 15.653 126.361C15.4725 126.412 15.3191 126.531 15.2256 126.693L12.8437 130.821C12.7962 130.901 12.7652 130.99 12.7523 131.083C12.7395 131.176 12.7451 131.27 12.7688 131.361C12.7925 131.451 12.8339 131.536 12.8905 131.61C12.9472 131.685 13.018 131.747 13.0989 131.794L20.793 136.238C20.8747 136.286 20.9649 136.317 21.0585 136.329C21.1521 136.342 21.2472 136.336 21.3385 136.311C21.4297 136.287 21.5153 136.245 21.5903 136.188C21.6654 136.131 21.7283 136.059 21.7757 135.977L24.1576 131.85C24.2522 131.688 24.2791 131.495 24.2324 131.313C24.1857 131.132 24.0692 130.976 23.9082 130.879L41.8016 99.8797L42.221 100.047L42.3912 100.111C42.6346 100.202 42.881 100.293 43.1274 100.378L43.2448 100.419L44.1248 100.713L44.1834 100.73C44.4474 100.81 44.7114 100.886 44.9784 100.959L45.1866 101.018C45.4213 101.079 45.656 101.141 45.8936 101.197C45.9552 101.197 46.0138 101.229 46.0754 101.241C46.3218 101.299 46.5682 101.355 46.8176 101.408V113.2C46.8176 113.398 46.8964 113.589 47.0366 113.729C47.1769 113.869 47.3672 113.948 47.5656 113.948H50.1586L118.156 114.197H119.403C119.599 114.197 119.787 114.121 119.928 113.984C120.068 113.847 120.149 113.66 120.154 113.464V42.14L95.7192 17.7024Z" fill="url(#paint0_linear_708_14036)"/>
<path d="M108.43 24.9301L83.9861 0.492523H35.9087C35.6932 0.492523 35.4866 0.57813 35.3342 0.73051C35.1818 0.882889 35.0962 1.08956 35.0962 1.30506V96.0019C35.0962 96.2002 35.175 96.3905 35.3153 96.5308C35.4556 96.6711 35.6458 96.7499 35.8442 96.7499H107.682C107.88 96.7499 108.07 96.6711 108.21 96.5308C108.351 96.3905 108.43 96.2002 108.43 96.0019V24.9301Z" fill="#D4EDFC"/>
<path d="M88.2245 4.98053L38.437 96.7499L106.435 96.9992H107.681C107.877 96.9992 108.065 96.9224 108.205 96.7853C108.345 96.6482 108.425 96.4617 108.429 96.2659V25.1795L88.2245 4.98053Z" fill="url(#paint1_linear_708_14036)"/>
<path d="M84.901 24.9301H108.429L83.9858 0.492523V24.0267C83.9882 24.2676 84.0857 24.4978 84.2572 24.6671C84.4286 24.8363 84.6601 24.9309 84.901 24.9301Z" fill="#49A5E6"/>
<path opacity="0.35" d="M97.6757 35.0091H48.5922C48.3849 35.0371 48.174 35.0204 47.9737 34.9602C47.7733 34.9 47.5882 34.7976 47.4307 34.6599C47.2732 34.5223 47.1469 34.3525 47.0604 34.162C46.9739 33.9716 46.9292 33.7648 46.9292 33.5556C46.9292 33.3464 46.9739 33.1396 47.0604 32.9492C47.1469 32.7587 47.2732 32.5889 47.4307 32.4513C47.5882 32.3136 47.7733 32.2112 47.9737 32.151C48.174 32.0908 48.3849 32.0741 48.5922 32.1021H97.6757C98.0274 32.1496 98.3501 32.3231 98.5837 32.5904C98.8173 32.8577 98.946 33.2006 98.946 33.5556C98.946 33.9106 98.8173 34.2535 98.5837 34.5208C98.3501 34.7881 98.0274 34.9615 97.6757 35.0091Z" fill="#4AA3E3"/>
<path opacity="0.35" d="M97.6761 43.9733H48.5926C48.2408 43.9258 47.9182 43.7523 47.6846 43.4851C47.451 43.2178 47.3223 42.8748 47.3223 42.5199C47.3223 42.1649 47.451 41.822 47.6846 41.5547C47.9182 41.2874 48.2408 41.1139 48.5926 41.0664H97.6761C98.0279 41.1139 98.3505 41.2874 98.5841 41.5547C98.8177 41.822 98.9464 42.1649 98.9464 42.5199C98.9464 42.8748 98.8177 43.2178 98.5841 43.4851C98.3505 43.7523 98.0279 43.9258 97.6761 43.9733Z" fill="#4AA3E3"/>
<path opacity="0.35" d="M97.6761 52.9259H48.5926C48.2408 52.8783 47.9182 52.7049 47.6846 52.4376C47.451 52.1703 47.3223 51.8274 47.3223 51.4724C47.3223 51.1174 47.451 50.7745 47.6846 50.5072C47.9182 50.2399 48.2408 50.0664 48.5926 50.0189H97.6761C98.0279 50.0664 98.3505 50.2399 98.5841 50.5072C98.8177 50.7745 98.9464 51.1174 98.9464 51.4724C98.9464 51.8274 98.8177 52.1703 98.5841 52.4376C98.3505 52.7049 98.0279 52.8783 97.6761 52.9259Z" fill="#4AA3E3"/>
<path opacity="0.35" d="M97.676 70.8427H48.5925C48.3845 70.8723 48.1726 70.8569 47.9711 70.7975C47.7695 70.7382 47.5831 70.6362 47.4245 70.4985C47.2658 70.3608 47.1385 70.1907 47.0513 69.9995C46.9641 69.8084 46.9189 69.6008 46.9189 69.3907C46.9189 69.1806 46.9641 68.973 47.0513 68.7818C47.1385 68.5907 47.2658 68.4205 47.4245 68.2828C47.5831 68.1452 47.7695 68.0432 47.9711 67.9838C48.1726 67.9244 48.3845 67.909 48.5925 67.9387H97.676C98.0602 67.8857 98.4498 67.987 98.7595 68.2205C99.0692 68.4541 99.2738 68.8008 99.3285 69.1848C99.3831 69.5688 99.2835 69.9588 99.0513 70.2695C98.8191 70.5802 98.4733 70.7863 98.0896 70.8427C97.9525 70.8632 97.8131 70.8632 97.676 70.8427Z" fill="#4AA3E3"/>
<path opacity="0.35" d="M97.6757 79.8011H70.0672C69.7154 79.7536 69.3928 79.5801 69.1592 79.3128C68.9256 79.0455 68.7969 78.7026 68.7969 78.3476C68.7969 77.9926 68.9256 77.6497 69.1592 77.3824C69.3928 77.1151 69.7154 76.9417 70.0672 76.8941H97.6757C98.0275 76.9417 98.3501 77.1151 98.5837 77.3824C98.8173 77.6497 98.9461 77.9926 98.9461 78.3476C98.9461 78.7026 98.8173 79.0455 98.5837 79.3128C98.3501 79.5801 98.0275 79.7536 97.6757 79.8011Z" fill="#4AA3E3"/>
<path d="M1.85566 113.725L23.7207 75.8557L31.4471 80.3173L9.58206 118.187C9.53495 118.269 9.47214 118.34 9.39723 118.398C9.32231 118.456 9.23677 118.498 9.14549 118.522C9.05421 118.547 8.95899 118.553 8.86528 118.541C8.77158 118.529 8.68122 118.498 8.59939 118.451L2.11672 114.705C2.0346 114.658 1.96254 114.596 1.90472 114.521C1.8469 114.447 1.80448 114.361 1.77992 114.27C1.75536 114.179 1.74915 114.084 1.76165 113.99C1.77414 113.897 1.8051 113.807 1.85272 113.725H1.85566Z" fill="#004481"/>
<path d="M64.6936 54.9059C64.6936 59.5471 63.3173 64.0842 60.7388 67.9433C58.1602 71.8023 54.4952 74.8101 50.2072 76.5863C45.9193 78.3624 41.2009 78.8271 36.6488 77.9216C32.0967 77.0162 27.9154 74.7812 24.6335 71.4993C21.3516 68.2174 19.1166 64.0361 18.2112 59.484C17.3057 54.9319 17.7704 50.2135 19.5466 45.9256C21.3227 41.6376 24.3305 37.9726 28.1896 35.3941C32.0486 32.8155 36.5857 31.4392 41.2269 31.4392C47.4507 31.4392 53.4195 33.9116 57.8204 38.3124C62.2212 42.7133 64.6936 48.6821 64.6936 54.9059Z" fill="#65A4E0"/>
<path d="M41.2267 84.8258C35.309 84.8258 29.5243 83.0711 24.604 79.7834C19.6837 76.4958 15.8488 71.8229 13.5842 66.3557C11.3196 60.8886 10.7271 54.8727 11.8816 49.0687C13.036 43.2648 15.8856 37.9336 20.07 33.7492C24.2544 29.5648 29.5856 26.7152 35.3895 25.5608C41.1935 24.4063 47.2094 24.9988 52.6765 27.2634C58.1437 29.528 62.8166 33.3629 66.1042 38.2832C69.3919 43.2035 71.1467 48.9882 71.1467 54.9058C71.1467 62.8411 67.9944 70.4514 62.3833 76.0625C56.7722 81.6736 49.1619 84.8258 41.2267 84.8258ZM41.2267 31.4392C36.5854 31.4392 32.0483 32.8155 28.1893 35.394C24.3302 37.9726 21.3224 41.6376 19.5463 45.9255C17.7701 50.2135 17.3054 54.9319 18.2109 59.484C19.1164 64.0361 21.3513 68.2174 24.6332 71.4993C27.9151 74.7812 32.0964 77.0161 36.6485 77.9216C41.2006 78.8271 45.919 78.3624 50.207 76.5862C54.4949 74.8101 58.1599 71.8023 60.7385 67.9432C63.317 64.0842 64.6933 59.5471 64.6933 54.9058C64.6933 48.6821 62.2209 42.7133 57.8201 38.3124C53.4192 33.9116 47.4504 31.4392 41.2267 31.4392Z" fill="#043263"/>
<path opacity="0.5" d="M52.9015 34.5661C47.5149 31.4577 41.114 30.6165 35.1071 32.2275C29.1003 33.8385 23.9794 37.7697 20.871 43.1564C17.7626 48.543 16.9214 54.9439 18.5324 60.9507C20.1434 66.9576 24.0746 72.0785 29.4612 75.1869L52.9015 34.5661Z" fill="url(#paint2_linear_708_14036)"/>
<path d="M3.48974 109.487L1.10787 113.613C0.909415 113.956 1.02718 114.396 1.37091 114.594L9.06815 119.038C9.41189 119.237 9.85142 119.119 10.0499 118.775L12.4317 114.65C12.6302 114.306 12.5124 113.867 12.1687 113.668L4.47145 109.224C4.12772 109.026 3.68819 109.144 3.48974 109.487Z" fill="#2DCCCD"/>
<mask id="mask0_708_14036" style="mask-type:luminance" maskUnits="userSpaceOnUse" x="17" y="31" width="48" height="48">
<path d="M41.2269 31.36C36.5857 31.36 32.0486 32.7363 28.1896 35.3148C24.3305 37.8934 21.3227 41.5584 19.5466 45.8463C17.7704 50.1343 17.3057 54.8527 18.2112 59.4048C19.1166 63.9569 21.3516 68.1382 24.6335 71.4201C27.9154 74.702 32.0967 76.9369 36.6488 77.8424C41.2009 78.7479 45.9193 78.2832 50.2072 76.507C54.4952 74.7309 58.1602 71.7231 60.7388 67.864C63.3173 64.005 64.6936 59.4679 64.6936 54.8267C64.6936 48.6029 62.2212 42.6341 57.8204 38.2332C53.4195 33.8324 47.4507 31.36 41.2269 31.36Z" fill="white"/>
</mask>
<g mask="url(#mask0_708_14036)">
<path opacity="0.7" d="M91.739 42.3483H28.4817C28.2357 42.3816 27.9856 42.3661 27.7456 42.3028C27.5056 42.2395 27.2805 42.1295 27.083 41.9791C26.6842 41.6754 26.4223 41.2258 26.355 40.7291C26.2877 40.2323 26.4205 39.7292 26.7242 39.3304C27.0278 38.9316 27.4775 38.6697 27.9742 38.6024C28.1426 38.5789 28.3133 38.5789 28.4817 38.6024H91.739C92.1934 38.6622 92.6106 38.8851 92.9128 39.2297C93.2151 39.5743 93.3817 40.017 93.3817 40.4753C93.3817 40.9337 93.2151 41.3764 92.9128 41.721C92.6106 42.0655 92.1934 42.2885 91.739 42.3483Z" fill="#1464A5"/>
<path opacity="0.7" d="M91.739 53.8997H28.4817C28.0288 53.8375 27.6137 53.6134 27.3132 53.2688C27.0127 52.9243 26.8472 52.4825 26.8472 52.0253C26.8472 51.5682 27.0127 51.1264 27.3132 50.7818C27.6137 50.4373 28.0288 50.2132 28.4817 50.1509H91.739C92.192 50.2132 92.6071 50.4373 92.9075 50.7818C93.208 51.1264 93.3736 51.5682 93.3736 52.0253C93.3736 52.4825 93.208 52.9243 92.9075 53.2688C92.6071 53.6134 92.192 53.8375 91.739 53.8997Z" fill="#1464A5"/>
<path opacity="0.7" d="M91.7389 65.4395H28.4816C28.0272 65.3797 27.61 65.1567 27.3077 64.8122C27.0055 64.4676 26.8389 64.0249 26.8389 63.5665C26.8389 63.1082 27.0055 62.6655 27.3077 62.3209C27.61 61.9763 28.0272 61.7534 28.4816 61.6936H91.7389C92.1933 61.7534 92.6105 61.9763 92.9128 62.3209C93.215 62.6655 93.3816 63.1082 93.3816 63.5665C93.3816 64.0249 93.215 64.4676 92.9128 64.8122C92.6105 65.1567 92.1933 65.3797 91.7389 65.4395Z" fill="#1464A5"/>
</g>
<path d="M67.3069 69.4464C71.0712 62.6771 72.0637 54.7118 70.0757 47.2258C68.0876 39.7398 63.274 33.3164 56.6472 29.3067L53.4205 34.8595C58.6235 38.0698 62.3681 43.184 63.8576 49.1135C65.347 55.043 64.4635 61.3197 61.3952 66.6077C58.3269 71.8957 53.3161 75.7775 47.4291 77.4269C41.5421 79.0763 35.2438 78.3632 29.8746 75.4392V75.4539L26.6479 81.0272C31.0616 83.507 36.035 84.8195 41.0975 84.8405H41.6842C46.9298 84.7463 52.0585 83.2744 56.5557 80.5725C61.0529 77.8705 64.7606 74.0336 67.3069 69.4464Z" fill="url(#paint3_linear_708_14036)"/>
<defs>
<linearGradient id="paint0_linear_708_14036" x1="22.1013" y1="3.33493" x2="91.6448" y2="134.123" gradientUnits="userSpaceOnUse">
<stop stop-color="#1C2645" stop-opacity="0.5"/>
<stop offset="1" stop-color="#1C2645" stop-opacity="0"/>
</linearGradient>
<linearGradient id="paint1_linear_708_14036" x1="108.429" y1="50.9899" x2="38.437" y2="50.9899" gradientUnits="userSpaceOnUse">
<stop stop-color="#043263" stop-opacity="0.1"/>
<stop offset="1" stop-color="#043263" stop-opacity="0"/>
</linearGradient>
<linearGradient id="paint2_linear_708_14036" x1="22.0575" y1="36.3232" x2="49.5018" y2="63.7674" gradientUnits="userSpaceOnUse">
<stop stop-color="white" stop-opacity="0.8"/>
<stop offset="1" stop-color="white" stop-opacity="0"/>
</linearGradient>
<linearGradient id="paint3_linear_708_14036" x1="71.4927" y1="57.0648" x2="26.601" y2="57.0648" gradientUnits="userSpaceOnUse">
<stop stop-color="#043263" stop-opacity="0.7"/>
<stop offset="1" stop-color="#043263" stop-opacity="0"/>
</linearGradient>
</defs>
</svg>
