<svg width="24" height="24" viewBox="0 0 24 24" fill="none" xmlns="http://www.w3.org/2000/svg">
<path d="M21.0462 1.84619H2.95385C2.66007 1.84619 2.37833 1.96289 2.1706 2.17063C1.96286 2.37836 1.84616 2.66011 1.84616 2.95388V21.0462C1.84616 21.34 1.96286 21.6217 2.1706 21.8294C2.37833 22.0372 2.66007 22.1539 2.95385 22.1539H21.0462C21.3399 22.1539 21.6217 22.0372 21.8294 21.8294C22.0371 21.6217 22.1539 21.34 22.1539 21.0462V2.95388C22.1539 2.66011 22.0371 2.37836 21.8294 2.17063C21.6217 1.96289 21.3399 1.84619 21.0462 1.84619ZM15.7292 14.3908L15.7385 9.4985L8.7877 16.5231H6.11078L14.4554 8.18773L9.47078 8.19696V6.33234L17.5846 6.34158L17.5939 14.4L15.7292 14.3908Z" fill="#49A5E6"/>
</svg>
