<svg width="24" height="24" viewBox="0 0 24 24" fill="none" xmlns="http://www.w3.org/2000/svg">
<g clip-path="url(#clip0_1658_562)">
<path d="M16.8821 15.0351C18.1093 13.3434 18.6539 11.2512 18.4071 9.17584C18.1604 7.10047 17.1405 5.19434 15.5507 3.83757C13.961 2.48079 11.9183 1.77304 9.82992 1.85547C7.74155 1.93789 5.76098 2.80442 4.28313 4.28227C2.80528 5.76012 1.93874 7.7407 1.85632 9.82907C1.7739 11.9174 2.48164 13.9601 3.83842 15.5499C5.1952 17.1396 7.10132 18.1595 9.1767 18.4063C11.2521 18.653 13.3442 18.1085 15.0359 16.8812L20.3076 22.1538L22.1538 20.3077L16.8821 15.0351ZM13.8461 10.1538C13.8461 9.17458 13.4571 8.23542 12.7646 7.54298C12.0722 6.85054 11.133 6.46153 10.1538 6.46153V4.61538C11.6221 4.61709 13.0299 5.20115 14.0682 6.23944C15.1065 7.27773 15.6905 8.68547 15.6922 10.1538H13.8461Z" fill="white"/>
</g>
<defs>
<clipPath id="clip0_1658_562">
<rect width="24" height="24" fill="white"/>
</clipPath>
</defs>
</svg>
