<svg width="24" height="24" viewBox="0 0 24 24" fill="none" xmlns="http://www.w3.org/2000/svg">
<path d="M18.4616 1.85903C18.4431 0.826103 17.3539 0.90918 16.6154 0.935949L15.6923 1.85903H14.7693V0.935949H13.8462L12.9231 1.85903H12V0.935949H11.077L10.1539 1.85903H9.23081V0.935949H8.30773L7.38465 1.85903H6.46158V0.935949H5.5385L4.61542 1.85903H3.69235V0.935949C2.97235 0.908257 1.84619 0.834411 1.84619 1.85903V22.1418C1.85542 23.1655 2.95388 23.0916 3.69235 23.0649L4.61542 22.1418H5.5385V23.0649H6.46158L7.38465 22.1418H8.30773V23.0649H9.23081L10.1539 22.1418V18.4495L18.4616 10.1538V1.85903ZM11.077 11.0769H4.61542V9.23072H12.9231L11.077 11.0769ZM13.8462 7.38918H4.61542V5.54303H15.6923L13.8462 7.38918Z" fill="white"/>
<path d="M21.8289 13.5212C21.1458 12.8944 20.0843 11.2994 19.0597 12.3212L12 19.3763V22.1455H14.7692L21.8308 15.0923C21.9342 14.9892 22.0162 14.8667 22.0721 14.7319C22.128 14.597 22.1567 14.4524 22.1566 14.3064C22.1564 14.1604 22.1274 14.0158 22.0711 13.8811C22.0149 13.7463 21.9326 13.624 21.8289 13.5212Z" fill="white"/>
<path d="M17.5366 22.1418H22.1511V20.2985H19.3828L17.5366 22.1418Z" fill="white"/>
</svg>
