<svg width="24" height="24" viewBox="0 0 24 24" fill="none" xmlns="http://www.w3.org/2000/svg">
<path fill-rule="evenodd" clip-rule="evenodd" d="M18.438 9.26001H14.75V7.42668H20.2714L18.438 9.26001ZM18.438 12.9267H14.75V11.0933H20.2714L18.438 12.9267ZM13.7417 17.51H3.75V16.51C3.75 14.3934 5.20915 12.6185 7.18081 12.1383C7.65289 12.3756 8.18566 12.5101 8.75005 12.5101C9.31426 12.5101 9.84272 12.3757 10.3147 12.1385C12.2841 12.619 13.7417 14.3933 13.7417 16.51V17.51ZM8.75005 6.51001C10.1307 6.51001 11.25 7.62926 11.25 9.00994C11.25 10.3907 10.1307 11.51 8.75005 11.51C7.36928 11.51 6.25002 10.3907 6.25002 9.00994C6.25002 7.62926 7.36928 6.51001 8.75005 6.51001ZM22.104 3.76001H1.93867C1.43157 3.76001 1 4.16765 1 4.67063V19.3494C1 19.8522 1.43202 20.26 1.93867 20.26H22.104C22.6111 20.26 23 19.8524 23 19.3494V4.67063C23 4.16783 22.6107 3.76001 22.104 3.76001Z" fill="white"/>
</svg>
