<svg width="20" height="20" viewBox="0 0 20 20" fill="none" xmlns="http://www.w3.org/2000/svg">
<path d="M9.99998 10V6.9231C9.28917 6.92402 8.60067 7.17133 8.05173 7.62289C7.50279 8.07445 7.12735 8.70234 6.98937 9.39962C6.85139 10.0969 6.95939 10.8205 7.29498 11.4471C7.63057 12.0737 8.173 12.5645 8.82988 12.8361C9.48676 13.1077 10.2175 13.1431 10.8976 12.9365C11.5777 12.7298 12.1651 12.2937 12.5598 11.7026C12.9545 11.1114 13.132 10.4017 13.0622 9.69436C12.9924 8.98699 12.6795 8.32569 12.1769 7.8231L9.99998 10Z" fill="#1973B8"/>
<path d="M10.0001 3.0769C3.07698 3.0769 0.769287 9.99998 0.769287 9.99998C0.769287 9.99998 3.07698 16.9231 10.0001 16.9231C16.9231 16.9231 19.2308 9.99998 19.2308 9.99998C19.2308 9.99998 16.9231 3.0769 10.0001 3.0769ZM10.0001 14.6154C9.08722 14.6154 8.19488 14.3447 7.43589 13.8375C6.67689 13.3304 6.08532 12.6096 5.736 11.7662C5.38667 10.9229 5.29527 9.99486 5.47336 9.09956C5.65144 8.20427 6.09101 7.38188 6.73649 6.73641C7.38196 6.09094 8.20434 5.65137 9.09964 5.47328C9.99494 5.29519 10.9229 5.38659 11.7663 5.73592C12.6096 6.08525 13.3305 6.67682 13.8376 7.43581C14.3448 8.19481 14.6154 9.08714 14.6154 9.99998C14.6154 11.2241 14.1292 12.398 13.2636 13.2636C12.3981 14.1291 11.2241 14.6154 10.0001 14.6154Z" fill="#1973B8"/>
</svg>
