<svg width="92" height="100" viewBox="0 0 92 100" fill="none" xmlns="http://www.w3.org/2000/svg">
<path d="M34.2833 23.6167H66.2833C68.4 23.6167 70.1167 25.3334 70.1167 27.45V90.1167C70.1167 92.2334 68.4 93.95 66.2833 93.95H34.2833C32.1667 93.95 30.45 92.2334 30.45 90.1167V27.45C30.45 25.3334 32.1667 23.6167 34.2833 23.6167Z" fill="url(#paint0_linear_708_9067)"/>
<path d="M26 14.8333H58C60.1167 14.8333 61.8333 16.5499 61.8333 18.6666V81.3332C61.8333 83.4499 60.1167 85.1666 58 85.1666H26C23.8833 85.1666 22.1667 83.4499 22.1667 81.3332V18.6666C22.1667 16.5499 23.8833 14.8333 26 14.8333Z" fill="#1464A5"/>
<path d="M61.8333 23.6667H22.1667V76.3334H61.8333V23.6667Z" fill="#49A5E6"/>
<path opacity="0.5" fill-rule="evenodd" clip-rule="evenodd" d="M22.2333 23.7001V76.3001H35.8667L61.8333 28.3501V23.6667L22.2333 23.7001Z" fill="url(#paint1_linear_708_9067)"/>
<path d="M48.5 46.7332L45.9667 51.5666C45.9167 51.6332 45.8333 51.6666 45.75 51.6166C45.7333 51.5999 45.7 51.5832 45.7 51.5666L43.1667 46.7332C43.1333 46.6832 43.0834 46.6499 43.0334 46.6499H41.8C41.7333 46.6499 41.6833 46.6999 41.6833 46.7499C41.6833 46.7666 41.6834 46.7999 41.7 46.8166L45.7 54.2999C45.7334 54.3666 45.8333 54.3999 45.9 54.3666C45.9333 54.3499 45.95 54.3332 45.9667 54.2999L49.9667 46.8166C50 46.7666 49.9833 46.6999 49.9333 46.6666C49.9167 46.6499 49.9 46.6499 49.8667 46.6499H48.6333C48.5833 46.6666 48.5333 46.6832 48.5 46.7332Z" fill="white"/>
<path d="M49.9333 53.1833L52.4667 48.3499C52.5167 48.2833 52.6 48.2499 52.6833 48.2999C52.7 48.3166 52.7333 48.3333 52.7333 48.3499L55.2667 53.1833C55.3 53.2333 55.35 53.2666 55.4 53.2666H56.6333C56.7 53.2666 56.75 53.2166 56.75 53.1666C56.75 53.1499 56.75 53.1333 56.7333 53.0999L52.7333 45.6166C52.7 45.5499 52.6 45.5166 52.5333 45.5499C52.5167 45.5666 52.4833 45.5833 52.4667 45.6166L48.4667 53.0999C48.4333 53.1499 48.45 53.2166 48.5 53.2499C48.5167 53.2666 48.5333 53.2666 48.5667 53.2666H49.8C49.85 53.2666 49.9 53.2333 49.9333 53.1833Z" fill="white"/>
<path d="M30.9667 53.2499H28.6833C28.6 53.2499 28.5333 53.1832 28.5333 53.0999V51.0499C28.5333 50.9666 28.6 50.8999 28.6833 50.8999H30.9667C32.05 50.8999 32.55 51.2166 32.55 52.0666C32.55 52.9166 32.0667 53.2499 30.9667 53.2499ZM28.6833 47.7666H30.9333C31.7667 47.7666 32.1833 48.1166 32.1833 48.7832C32.1833 49.4499 31.7667 49.7999 30.9333 49.7999H28.6833C28.6 49.7999 28.5333 49.7332 28.5333 49.6499V47.9332C28.5333 47.8499 28.6 47.7832 28.6833 47.7666C28.6833 47.7832 28.6833 47.7832 28.6833 47.7666ZM32.6167 50.2166C33.15 49.9499 33.4833 49.3832 33.4833 48.6666C33.4833 47.4666 32.55 46.6499 31.2167 46.6499H27.4167C27.3333 46.6499 27.2667 46.7166 27.2667 46.7999V54.2166C27.2667 54.2999 27.3333 54.3666 27.4167 54.3666H31.05C32.8667 54.3666 33.8333 53.5832 33.8333 52.0499C33.8167 50.5666 32.6167 50.2166 32.6167 50.2166Z" fill="white"/>
<path d="M38.7667 53.2499H36.4833C36.4 53.2499 36.3333 53.1832 36.3333 53.0999V51.0499C36.3333 50.9666 36.4 50.8999 36.4833 50.8999H38.7667C39.85 50.8999 40.35 51.2166 40.35 52.0666C40.35 52.9166 39.8667 53.2499 38.7667 53.2499ZM36.4833 47.7666H38.7333C39.5666 47.7666 39.9833 48.1166 39.9833 48.7832C39.9833 49.4499 39.5666 49.7999 38.7333 49.7999H36.4833C36.4 49.7999 36.3333 49.7332 36.3333 49.6499V47.9332C36.3333 47.8499 36.4 47.7832 36.4833 47.7666C36.4833 47.7832 36.4833 47.7832 36.4833 47.7666ZM40.4167 50.2166C40.95 49.9499 41.2833 49.3832 41.2833 48.6666C41.2833 47.4666 40.35 46.6499 39.0167 46.6499H35.2166C35.1333 46.6499 35.0667 46.7166 35.0667 46.7999V54.2166C35.0667 54.2999 35.1333 54.3666 35.2166 54.3666H38.8333C40.65 54.3666 41.6167 53.5832 41.6167 52.0499C41.6167 50.5666 40.4167 50.2166 40.4167 50.2166Z" fill="white"/>
<defs>
<linearGradient id="paint0_linear_708_9067" x1="31.9651" y1="24.3318" x2="68.5949" y2="93.2215" gradientUnits="userSpaceOnUse">
<stop stop-color="#192647" stop-opacity="0.5"/>
<stop offset="1" stop-color="#192647" stop-opacity="0"/>
</linearGradient>
<linearGradient id="paint1_linear_708_9067" x1="26.6938" y1="34.648" x2="50.9754" y2="58.9297" gradientUnits="userSpaceOnUse">
<stop stop-color="white" stop-opacity="0.5"/>
<stop offset="1" stop-color="white" stop-opacity="0"/>
</linearGradient>
</defs>
</svg>
