<svg width="20" height="22" viewBox="0 0 20 22" fill="none" xmlns="http://www.w3.org/2000/svg">
<path fill-rule="evenodd" clip-rule="evenodd" d="M2.61544 2.69235H6.30775V1.77758C6.3075 1.53192 6.40441 1.29613 6.57733 1.12164C6.75026 0.947158 6.98517 0.848141 7.23083 0.846191H12.7693C12.8912 0.846186 13.0119 0.870335 13.1245 0.917243C13.237 0.96415 13.3391 1.03289 13.425 1.11948C13.5108 1.20608 13.5786 1.30882 13.6245 1.42178C13.6704 1.53473 13.6935 1.65566 13.6924 1.77758V2.69235H19.2308V5.46158H17.3847V20.2382C17.3844 20.359 17.3603 20.4786 17.3138 20.59C17.2672 20.7015 17.1991 20.8027 17.1133 20.8878C17.0276 20.9728 16.9258 21.0401 16.814 21.0858C16.7022 21.1315 16.5824 21.1546 16.4616 21.1539H3.53852C3.29498 21.1539 3.0613 21.0577 2.8884 20.8861C2.7155 20.7146 2.61739 20.4817 2.61544 20.2382V5.46158H0.769287V2.69235H2.61544ZM7.23083 18.3847V11H5.38467V16.5385L7.23083 18.3847ZM10.9231 18.3847V11H9.07698V16.5385L10.9231 18.3847ZM14.6154 18.3847V11H12.7693V16.5385L14.6154 18.3847Z" fill="#1973B8"/>
</svg>
