<svg width="24" height="24" viewBox="0 0 24 24" fill="none" xmlns="http://www.w3.org/2000/svg">
<path fill-rule="evenodd" clip-rule="evenodd" d="M14.8985 12.2354C13.999 12.6868 13.0065 12.9219 12.0001 12.9219C10.9936 12.9219 10.0011 12.6868 9.10159 12.2354C7.29537 12.6788 5.68997 13.7151 4.54204 15.1785C3.39412 16.6418 2.76994 18.4478 2.76929 20.3077V22.1538H21.2308V20.3077C21.2302 18.4478 20.606 16.6418 19.4581 15.1785C18.3101 13.7151 16.7047 12.6788 14.8985 12.2354ZM14.7693 19.3929H12.0001V17.5467H16.6154L14.7693 19.3929Z" fill="white"/>
<path d="M11.9999 11.0807C14.5489 11.0807 16.6153 9.01345 16.6153 6.46342C16.6153 3.9134 14.5489 1.84619 11.9999 1.84619C9.4509 1.84619 7.38452 3.9134 7.38452 6.46342C7.38452 9.01345 9.4509 11.0807 11.9999 11.0807Z" fill="white"/>
</svg>
