<svg version="1" xmlns="http://www.w3.org/2000/svg" width="122" height="102"><style>.st24{fill:#792d1d}.st25{fill:#662217}.st26{fill:#531912}</style><g id="Capa_1"><circle cx="62" cy="45" r="45" fill="#38baa5"/><path d="M79 18l1 1-1-1c-5-1-11 0-14 2H24c-4 7-7 16-7 25v1h41l-8 42a45 45 0 0 0 25 0l2-14 1-3 2-13 1-3v-2-1h2l2 31v1c8-5 15-13 18-22l-3-16h6l1-1c0-9-3-18-8-25h-8c-7-4-12-2-12-2zm2 2l-1-1 1 1zm0 32zm12-3v-1 1z" fill="#38a993"/><path class="st24" d="M114 44H6c-3 0-6-3-6-6V23c0-3 3-6 6-6h108c3 0 5 3 5 6v15c0 3-2 6-5 6z"/><path class="st25" d="M5 44h55v-4z"/><path class="st26" d="M115 17H63v27h52c2 0 4-3 4-5V22c0-2-2-5-4-5z"/><path class="st24" d="M77 35c-11-9-19-9-19-9v-1c0-1 0-3 3-7 3-3 10-4 15-3 8 7 7 16 4 23l-3-3z"/><path class="st25" d="M76 15h-3c3 6 3 12 1 18l3 2 4 4c3-6 3-17-5-24z"/><path class="st24" d="M90 19c5 4 6 9 6 9 3 10-5 17-5 17l-1 1-10 4-6-1s5-4 8-10c2-7 2-17-6-24 0 0 7-2 14 4z"/><path class="st25" d="M80 38l3 2c2-7 3-18-7-25 8 7 7 16 4 23z"/><path class="st25" d="M96 28v-1c0 1 0 1 0 0v-2a17 17 0 0 0-8-8c4 4 6 10 4 15-1 2-6 4-11 4l-2 11-2 1h-2l-1 1 5 1h2c3-1 7-2 9-4h1v-1s8-6 5-17z"/><path class="st26" d="M96 37c-1 5-5 8-5 8l-1 1-10 4 2 30s-1 6 1 7 19-7 20-8-4-33-7-42z"/><path class="st24" d="M70 101l-19-2-6-1v-5l13-64s13 0 22 9l-10 63z"/><path class="st25" d="M58 26v3c4 1 17 6 16 17l-8 54 4 1 10-63C70 27 58 26 58 26z"/><path class="st26" d="M78 50l1-7 1-4 1-3 1 13-4 1z"/></g></svg>