<svg version="1" xmlns="http://www.w3.org/2000/svg" width="122" height="102"><style>.st36{fill:#ffe02d}.st37{fill:#f3c727}.st38{fill:#dcb322}</style><g id="Capa_1"><circle cx="62" cy="45" r="45" fill="#38baa5"/><path d="M78 18l2 1-2-1c-4-1-10 0-13 2H24c-5 7-7 16-7 25v1h41l-8 42a45 45 0 0 0 25 0l2-14 1-3 2-13v-3l1-2v-1h2l1 31v1c9-5 15-13 19-22l-3-16h6v-1c0-9-3-18-7-25h-9c-6-4-12-2-12-2zm3 2l-1-1 1 1zm0 32zm11-3h1v-1l-1 1z" fill="#38a993"/><path class="st36" d="M113 44H6c-4 0-6-3-6-6V23c0-3 3-5 6-5h107c3 0 5 2 5 5v15c0 3-2 6-5 6z"/><path class="st37" d="M5 44h54v-4z"/><path class="st38" d="M114 18H63v26h51c2 0 4-2 4-5V22c0-2-2-4-4-4z"/><path class="st36" d="M76 35c-11-8-19-9-19-9l4-8c2-2 9-4 14-3 8 8 7 17 5 23l-4-3z"/><path class="st37" d="M75 15h-3c3 6 3 13 2 18l2 2 4 5c3-7 3-17-5-25z"/><path class="st36" d="M89 19c5 4 6 9 6 9 3 11-5 17-5 17l-1 1-10 4-6-1s5-4 8-10c3-7 2-16-6-24 0 0 7-1 14 4z"/><path class="st37" d="M80 38l2 2c2-6 3-18-7-25 8 8 7 16 5 23z"/><path class="st37" d="M95 28v-1-1a16 16 0 0 0-8-9c4 4 6 11 4 15-1 3-6 5-10 5l-3 10-2 1h-2l-1 1 4 1h3l9-4 1-1s8-6 5-17z"/><path class="st38" d="M95 38c-1 5-5 7-5 7l-1 1-10 4 2 30 1 6c1 0 19-6 20-8 0-1-4-32-7-40z"/><path class="st36" d="M69 100l-19-2-5-1v-4l13-64s12 0 22 9l-11 62z"/><path class="st37" d="M57 26l1 3c3 1 16 6 16 17s-6 44-8 54h3l11-62C69 27 57 26 57 26z"/><path class="st38" d="M78 50l1-7 1-4v-2l1 12-3 1z"/></g></svg>