<svg version="1" xmlns="http://www.w3.org/2000/svg" width="121" height="103"><style>.st1{fill:#fff}.st17{opacity:.25;enable-background:new}.st19{fill:#dcdbda}.st20{fill:#cfcdcc}</style><g id="Capa_1"><circle cx="61" cy="45" r="45" fill="#38baa5"/><path class="st17" d="M72 103l2-10v-2-1-1l3-15v-4l3-12v-3-2l1-1h1l2 31 1 6c1 1 19-7 20-8l-5-35h17c2 0 4-2 4-4V25c0-3-2-5-4-5H90c-7-4-12-2-12-2l1 1-1-1c-5-1-10 0-13 2H10c-4 0-7 3-7 7v13c0 3 3 6 6 6h48l-9 49v5l5 1M80 20l-1-1 1 1zM92 49v-1 1z"/><path d="M78 18l1 1-1-1c-5-1-11 0-14 2H25c-5 7-8 16-8 25v1h41l-8 42a45 45 0 0 0 25 0l3-14v-4l2-12 1-3v-2-1h2l2 31v1c8-5 15-13 18-22l-2-16h6v-1c0-9-3-18-8-25h-8c-7-4-12-2-12-2zm2 2l-1-1 1 1zm1 32zm11-3v-1 1z" fill="#38a993"/><path class="st1" d="M112 44H6c-4 0-6-3-6-6V24c0-3 3-6 6-6h106c4 0 6 3 6 6v14c0 3-3 6-6 6z"/><path class="st19" d="M5 44h54v-3z"/><path class="st20" d="M114 18H63v26h51c2 0 4-2 4-5V23c0-3-2-5-4-5z"/><path class="st1" d="M76 35c-11-8-19-9-19-9 0-1 0-4 4-7 2-3 9-4 14-3 8 7 7 16 4 23l-3-4z"/><path class="st19" d="M75 16l-3-1c3 7 3 13 2 19l2 1 4 5c3-7 3-17-5-24z"/><path class="st1" d="M89 20c5 3 6 8 6 8 3 11-5 18-5 18l-1 1-10 3h-6s5-4 8-11c2-7 2-16-6-23 0 0 7-2 14 4z"/><path class="st19" d="M79 39l3 2c2-7 3-19-7-25 8 7 7 16 4 23z"/><path class="st19" d="M95 28v-1l-1-1a16 16 0 0 0-8-8c5 3 6 10 5 14-1 3-6 5-11 5l-2 11h-2-2l-1 2h7l9-3v-1h1s8-7 5-18z"/><path class="st20" d="M95 38l-5 8-2 1-9 3 2 30s-1 6 1 7 19-7 19-9-3-32-6-40z"/><path class="st1" d="M69 100l-19-2-5-1v-4c2-14 10-58 13-64 0 0 12 0 21 9l-10 62"/><path class="st19" d="M69 100l10-61C69 27 57 26 57 26l1 4c3 1 16 5 16 17l-8 53h3"/><path class="st20" d="M113 44H92v-1h21c3 0 5-1 5-4V23c0-3-2-4-5-4H87v-1h26c3 0 5 2 5 5v16c0 3-2 5-5 5z"/><path class="st19" d="M78 19h-1l-1-1 1-1z"/><path class="st19" d="M76 18v-1h1l-1 1z"/><path class="st20" d="M77 51l2-8v-4l1-2 1 13-4 1z"/></g></svg>