<svg version="1" xmlns="http://www.w3.org/2000/svg" width="122" height="102"><style>.st27{fill:#ff7e22}.st28{fill:#f4681f}.st29{fill:#d6561a}</style><g id="Capa_1"><circle cx="62" cy="45" r="45" fill="#38baa5"/><path d="M79 18l1 1-1-1c-5-1-10 0-13 2H25c-5 7-8 16-8 25v1h41l-8 42a45 45 0 0 0 25 0l3-14v-3l3-13v-3-2l1-1h1l2 30v1c8-4 15-12 19-21l-3-16h6v-1c0-9-3-18-7-25h-9c-6-4-12-2-12-2zm2 2l-1-1 1 1zm1 32zm11-3v-1 1z" fill="#38a993"/><path class="st27" d="M114 44H6c-3 0-6-3-6-6V23c0-3 3-6 6-6h108c3 0 5 3 5 6v15c0 3-2 6-5 6z"/><path class="st28" d="M5 44h55v-4z"/><path class="st29" d="M115 17H63v27h52c2 0 4-3 4-5V22c0-3-2-5-4-5z"/><path class="st27" d="M77 35c-11-9-19-9-19-9v-1c0-1 0-4 3-7s9-4 14-3c8 7 8 16 5 23l-3-3z"/><path class="st28" d="M75 15h-2c3 6 3 12 1 18l3 2 4 4c3-6 3-17-6-24z"/><path class="st27" d="M90 19c5 4 6 9 6 9 3 10-5 17-5 17l-1 1-10 4-6-1s5-4 8-10c2-7 2-17-7-24 0 0 7-2 15 4z"/><path class="st28" d="M80 38l3 2c2-7 3-18-7-25 8 7 7 16 4 23z"/><path class="st28" d="M96 28v-1c0 1 0 1 0 0v-1h-1a17 17 0 0 0-8-9c5 4 6 10 5 15-1 2-6 4-11 4l-2 11-2 1h-2l-1 2h7c3-1 7-2 9-4h1c0-1 8-8 5-18z"/><path class="st29" d="M96 37l-5 8-2 1c-2 2-7 3-9 4l2 30s-1 6 1 7c2 0 19-7 20-9 0-1-4-32-7-41z"/><path class="st27" d="M70 100l-19-1-6-1v-5l13-64s13 0 22 9l-10 62z"/><path class="st28" d="M58 26v3c4 1 17 6 16 17 0 12-6 44-8 54l3 1 11-63C70 27 58 26 58 26z"/><path class="st29" d="M78 50l1-7 1-4 1-3 1 13-4 1z"/></g></svg>