<svg version="1" xmlns="http://www.w3.org/2000/svg" width="122" height="102"><style>.st21{fill:#005791}.st22{fill:#00466c}.st23{fill:#003e59}</style><g id="Capa_1"><circle cx="62" cy="45" r="45" fill="#38baa5"/><path d="M79 18l1 1-1-1c-5-1-11 0-14 2H24c-4 7-7 16-7 25v1h41l-8 42a45 45 0 0 0 25 0l2-14 1-3 2-13 1-3v-2-1h2l2 31v1c8-5 15-13 18-22l-3-16h6l1-1c0-9-3-18-8-25h-8c-7-4-12-2-12-2zm2 2l-1-1 1 1zm0 32zm12-3v-1 1z" fill="#38a993"/><path class="st21" d="M114 43H6c-3 0-6-2-6-5V23c0-3 3-6 6-6h107c4 0 6 3 6 6v15c0 3-2 5-5 5z"/><path class="st22" d="M5 43h55v-3z"/><path class="st23" d="M115 17H63v27h51c3 0 5-3 5-5V22c0-3-2-5-4-5z"/><path class="st21" d="M77 35c-11-9-19-9-19-9v-1c0-1 0-4 3-7s9-4 14-3c8 7 8 16 5 23l-3-3z"/><path class="st22" d="M75 15h-2c3 6 3 12 1 18l2 2h1l4 4c3-6 3-17-6-24z"/><path class="st21" d="M90 19c5 4 6 9 6 9 3 10-5 17-5 17l-2 1c-2 2-7 3-9 4l-7-1s6-4 8-10c3-7 2-17-6-24 0 0 7-2 15 4z"/><path class="st22" d="M80 38l2 2c3-7 4-18-7-25 9 7 8 16 5 23z"/><path class="st22" d="M96 28v-1c0 1 0 1 0 0l-1-1a17 17 0 0 0-8-9c5 4 6 10 5 15-2 2-6 4-11 4l-2 11-2 1h-2l-1 1 4 1h3l9-4 1-1s8-7 5-17z"/><path class="st23" d="M96 37l-5 8-2 1c-2 2-7 3-9 4l1 30s0 6 2 7c2 0 19-7 19-9 1-1-3-32-6-41z"/><path class="st21" d="M69 100l-18-2-6-1v-4l13-64s13 0 22 9l-11 62z"/><path class="st22" d="M58 26v3c4 1 17 6 16 17l-8 54h3l11-62a39 39 0 0 0-22-12z"/><path class="st23" d="M78 50l1-7 1-4 1-3v13l-3 1z"/></g></svg>