<svg version="1" xmlns="http://www.w3.org/2000/svg" width="248" height="86"><style>.st14{fill:#191919}.st15{fill:#cd4b4b}</style><g id="Capa_1"><path class="st14" d="M109 57c0 6-3 9-5 11-3 2-6 3-10 3h-3s11-4 11-14V28h7v29zM26 28v27L0 26v35h7V43l25 29V28zM41 28h7v33h-7zM82 28v27L56 26v35h7V43l26 29V28zM27 13h-3v9h-2v-9h-3v-2h8v2zM37 22h-2v-5h-4v5h-2V11h2v5h4v-5h2v11zM42 16h4v1h-4v4h5v1h-7V11h7v2h-5v3z"/><path class="st15" d="M108 86s-1 0 0 0zM136 2c1 1-1 2-1 3 1 0 0 0 0 0l-2 4v2h-1 1v2h-1v3h-1 1v2h-1c1 0 0 0 0 0v2l-1-1-1 4v1 1h-1l1 1-1-1v4h-1l1 1-1 1h-1l1 1h-1l1 1s-1 0 0 0l-1 1v2c1 1 0 0 0 0v2c0-1 0 0 0 0-1 0 0 0 0 0l-1 2h1-1v0s0 1 0 0v1h-1l1 1s-1 0 0 0h-1v1c1 0 0 0 0 0v2c-1 0-1 0 0 0h-1v1 2s-1 0 0 0l-1 2v2h-1v2h-1 1v1h-1v1s-1 0 0 0v2l-1 2s-1 0 0 0v1h-1 1l-1 1s1 0 0 0v1l-1 1v2 2l-1-1 1 1-2-1s0-1 0 0h1v2s0-1 0 0l1 1-1-1v2h-1 1s-1 0 0 0v1h-1l1 1s-1 0 0 0h-1s0 1 0 0v1h-1-1l2 1s-2 0-1 1c0 0 1 0 0 0v-1l-1 1h1v1c-1 0 0 0 0 0h-1v2c0-1 0 0 0 0v-2h-1v1l-1 2h1c1 0 0 0 0 0h-1v1l-1 2s0-1 0 0v1l-1-1v2h-1c0-1 0 0 0 0v-1-1-1l1 1-1-1h1v-1-1h1v-1-1l1-3h1l-1-1v-1h1v-1-1-1l1-1v-3l1-3h1l-1-1 1-1v-2 1h1l-1-1 1-2v-2h0l1-2 1-5v1l1-2v-2 1l1-2h0l1-4 1-1s1 0 0 0v-1l1-1v1l-1-2 2-8 3-8 1-1v-1l1-3 2-8 1-2 3-5 1 2zM108 85zM112 80zM113 79zM114 78c0-1 0 0 0 0zM114 77s0 1 0 0zM115 75v-1 1zM115 73zM123 47zM127 36z"/><path class="st15" d="M128 29v1l-1-1z"/><g><path class="st15" d="M127 13v-1 1zM138 56v-2l-1-2v-1-1l-1-1v-1-1h-1 1l-1-2v-1-1h-1 1l-1-1s0-1 0 0v-1-1h-1 1-1v-1h0v-1c-1 0 0 0 0 0s-1 0 0 0h-1 1l-1-1h1-1v-1-1h-1v-1-1s-1 0 0 0l-1-1 1-1h-1s1 0 0 0h0v-1-1h-1 1-1v-1h0v-1-1h-1v-1s0-1 0 0v-1l-1-1h0v-1h0c1 0 0 0 0 0s0-1 0 0l-1-1h1s-1 0 0 0v-1h-1v0h1c-1 0 0 0 0 0h-1c-1 0 0 0 0 0v-1 0h2l-1-1-1 1v-1h-1 1v-1 0h-1 1c-1 0-1 0 0 0h1l-1-1h-1s1 0 0 0h1l1-1h-1v-1h0s1 0 0 0l1-1h-1v1-1s1 0 0 0h0l1 1-1-1h1l1 1h-1 1c-1 0 0 0 0 0h-1l1 1v1h1v2h1v2h-1 1v1l1 1 1 2h-1 1l-1 1h1v2l1 1h-1 1v3l1 1h-1l1 1v1h-1s1 0 0 0h1v3c0-1 0 0 0 0l1 1 1 4 1 4v2c0 1 0 1 0 0l1 4v1l1 3h-1zM127 13z"/><path class="st15" d="M126 16h-1c0 1 0 1 0 0h1zM126 17h-1 1zM125 18zM125 18zM125 20s1 0 0 0c1 0 0 0 0 0zM126 20zM131 33zM133 39zM134 42z"/></g><g><path class="st14" d="M133 44h3c3 0 4 1 5 2l1 5-1 4c-1 1-2 2-5 2h-3v6h-3V44h3zm7 7l-1-3-3-1h-3v7h3l3-1 1-2zM160 63h-3l-5-6h-2v6h-3V44h5c3 0 4 1 5 2l2 5-2 4-2 2 5 6zm-7-9l2-1 1-2-1-3-2-1h-3v7h3zM169 63l-3-2-2-3v-4-4a10 10 0 0 1 5-5l4-1 4 1 3 2 2 3v7l-2 4-3 2h-8zm0-14c-2 1-2 3-2 5l1 4c2 2 3 2 5 2s3 0 5-2l2-4-2-5-5-2-4 2zM194 57l-2 5-5 1h-1v-3h1l3-1 1-2V44h3v13zM204 52h7v3h-7v6h8v2h-11V44h11v3h-8v5zM231 62l-2 1h-7l-3-3c-1 0-2-1-2-3l-1-3 1-4 2-3 3-2 4-1 3 1h1v4l-4-2-5 2-2 5 2 4c1 2 3 2 5 2 1 0 3 0 4-2h1v4zM248 47h-5v16h-3V47h-5v-3h13v3z"/></g><path class="st15" d="M108 86l27-86 1 3-19 66z"/><path class="st15" d="M127 13l-2 5 13 38z"/></g></svg>