<svg width="600" height="600" viewBox="0 0 600 600" fill="none" xmlns="http://www.w3.org/2000/svg"><g clip-path="url(#clip0_2152_310)"><path d="M599.957 250.904C600.331 249.01 599.952 247.043 598.899 245.424C597.846 243.805 596.202 242.661 594.318 242.235L331.107 184.088C323.676 182.447 315.961 182.588 308.594 184.497L110.248 251.628C108.947 251.97 107.763 252.658 106.823 253.62C105.883 254.582 105.221 255.781 104.909 257.089C104.752 257.801 104.701 258.533 104.759 259.26L104.309 264.134L104.732 269.185C104.727 271.905 105.641 274.546 107.327 276.68C109.012 278.814 111.369 280.315 114.016 280.94L144.243 300.587V336.016C144.243 351.484 154.646 365.383 170.47 371.267C224.334 391.291 278.74 400.161 333.688 397.877H334.043C356.801 396.913 379.443 394.105 401.747 389.48C423.521 385.066 444.934 379.023 465.805 371.404L466.802 371.063C472.29 369.198 477.312 366.171 481.525 362.189C485.737 358.207 489.042 353.364 491.213 347.989V377.875C489.466 378.91 487.952 380.293 486.765 381.939C485.578 383.586 484.743 385.459 484.312 387.443C483.882 389.426 483.865 391.477 484.263 393.467C484.661 395.458 485.465 397.344 486.625 399.01L474.789 447.859C472.863 456.133 481.219 457.061 485.711 457.061H509.18C519.037 457.061 523.802 455.696 522.518 449.348L510.804 399.146C512.006 397.457 512.838 395.535 513.247 393.503C513.656 391.471 513.632 389.376 513.178 387.353C512.723 385.331 511.847 383.428 510.608 381.766C509.369 380.105 507.794 378.723 505.985 377.711V293.733L593.444 271.015C595.486 270.494 597.286 269.287 598.543 267.597C599.801 265.907 600.44 263.836 600.352 261.731L599.957 250.904Z" fill="url(#paint0_linear_2152_310)"/><path d="M418.389 331.033C317.869 367.203 219.114 367.272 122.125 331.237C106.302 325.353 95.8984 311.455 95.8984 295.986V221.688H445.148V295.699C445.148 311.332 434.458 325.244 418.389 331.033Z" fill="#07467F"/><path d="M445.145 295.699V221.688H360.785L285.258 357.86C330.735 355.77 375.622 346.722 418.358 331.033C434.455 325.244 445.145 311.332 445.145 295.699Z" fill="url(#paint1_linear_2152_310)"/><path d="M551.522 210.891L551.918 221.717C552.003 223.822 551.363 225.891 550.106 227.581C548.849 229.271 547.05 230.478 545.01 231.001L280.652 299.661C274.6 301.244 268.252 301.314 262.167 299.866L8.93621 240.039C6.28979 239.414 3.93245 237.913 2.24707 235.779C0.561693 233.645 -0.35272 231.004 -0.347635 228.284V218.359" fill="#072146"/><path d="M260.987 285.501L5.33961 225.087C3.73148 224.707 2.29674 223.8 1.264 222.511C0.231261 221.221 -0.340046 219.622 -0.358893 217.97C-0.37774 216.318 0.156958 214.707 1.16001 213.394C2.16305 212.08 3.57673 211.141 5.17577 210.725L260.181 144.481C267.548 142.572 275.263 142.432 282.694 144.072L545.823 202.219C547.447 202.577 548.903 203.472 549.956 204.758C551.009 206.045 551.598 207.649 551.628 209.312C551.658 210.974 551.127 212.598 550.121 213.922C549.115 215.246 547.692 216.192 546.083 216.609L281.862 285.255C275.027 287.036 267.861 287.12 260.987 285.501Z" fill="#043263"/><path d="M450.17 361.346C449.2 361.346 448.239 361.155 447.343 360.784C446.447 360.412 445.633 359.868 444.947 359.183C444.261 358.497 443.717 357.682 443.346 356.786C442.975 355.89 442.784 354.93 442.784 353.96V254.8L268.493 207.11C267.526 206.885 266.614 206.466 265.812 205.88C265.01 205.294 264.335 204.552 263.826 203.699C263.318 202.845 262.987 201.898 262.853 200.914C262.719 199.93 262.785 198.929 263.046 197.971C263.308 197.012 263.761 196.117 264.377 195.338C264.992 194.558 265.759 193.911 266.631 193.435C267.503 192.959 268.462 192.664 269.45 192.567C270.439 192.47 271.437 192.573 272.384 192.871L452.136 242.021C453.703 242.448 455.086 243.379 456.072 244.669C457.059 245.959 457.594 247.537 457.597 249.161V353.932C457.602 354.902 457.417 355.864 457.05 356.762C456.684 357.66 456.145 358.478 455.463 359.167C454.781 359.857 453.969 360.406 453.075 360.782C452.181 361.158 451.222 361.354 450.252 361.36L450.17 361.346Z" fill="#D4ECFA"/><path d="M460.3 350.191L474.089 409.294C475.373 415.642 470.608 417.008 460.764 417.008H437.227C432.79 417.008 424.434 416.079 426.373 407.806L440.34 350.191C440.978 348.08 442.302 346.243 444.103 344.969C445.903 343.696 448.076 343.059 450.279 343.16C452.492 343.055 454.678 343.689 456.492 344.961C458.306 346.234 459.646 348.074 460.3 350.191Z" fill="#F6CB5B"/><path d="M455.249 350.187L461.093 401.003C462.048 409.29 463.168 417.004 453.543 417.004H447.099C435.549 417.004 438.607 409.29 439.549 401.003L445.406 350.187C445.884 346.092 447.904 343.184 450.293 343.156C452.696 343.143 454.772 346.078 455.249 350.187Z" fill="#F8DC92"/><path d="M450.333 365.338C458.499 365.338 465.119 358.718 465.119 350.552C465.119 342.386 458.499 335.766 450.333 335.766C442.167 335.766 435.547 342.386 435.547 350.552C435.547 358.718 442.167 365.338 450.333 365.338Z" fill="#F6CB5B"/><path d="M276.129 216.228C287.703 216.228 297.086 209.621 297.086 201.47C297.086 193.319 287.703 186.711 276.129 186.711C264.555 186.711 255.172 193.319 255.172 201.47C255.172 209.621 264.555 216.228 276.129 216.228Z" fill="#39CBCB"/></g><defs><linearGradient id="paint0_linear_2152_310" x1="295.487" y1="152.905" x2="470.435" y2="481.936" gradientUnits="userSpaceOnUse"><stop stop-color="#192647" stop-opacity="0.5"/><stop offset="1" stop-color="#192647" stop-opacity="0"/></linearGradient><linearGradient id="paint1_linear_2152_310" x1="445.09" y1="289.774" x2="285.258" y2="289.774" gradientUnits="userSpaceOnUse"><stop stop-color="#083361" stop-opacity="0.8"/><stop offset="1" stop-color="#083361" stop-opacity="0.2"/></linearGradient><clipPath id="clip0_2152_310"><rect width="600" height="600" fill="white"/></clipPath></defs></svg>