<svg width="600" height="600" viewBox="0 0 600 600" fill="none" xmlns="http://www.w3.org/2000/svg"><path d="M599.61 252.043C599.973 250.208 599.605 248.303 598.586 246.735C597.566 245.167 595.974 244.059 594.149 243.647L339.254 187.255C332.056 185.666 324.585 185.802 317.45 187.652L125.373 252.717C124.111 253.044 122.962 253.709 122.051 254.641C121.14 255.574 120.501 256.737 120.203 258.006C120.044 258.695 119.995 259.404 120.057 260.108L119.621 264.828L120.031 269.721C120.026 272.354 120.912 274.912 122.544 276.978C124.176 279.045 126.459 280.499 129.022 281.105L158.283 300.131V334.442C158.283 349.423 168.371 362.87 183.682 368.568C235.857 387.96 288.547 396.555 341.752 394.351H342.083C364.123 393.411 386.05 390.692 407.652 386.22C428.742 381.943 449.484 376.096 469.703 368.727L470.668 368.383C475.98 366.577 480.84 363.647 484.917 359.793C488.994 355.94 492.193 351.253 494.296 346.051V375.007C492.603 376.008 491.135 377.347 489.984 378.941C488.833 380.536 488.024 382.351 487.608 384.273C487.192 386.195 487.178 388.182 487.567 390.11C487.956 392.038 488.738 393.864 489.867 395.475L478.39 442.757C476.525 450.769 484.617 451.682 488.967 451.682H511.709C521.243 451.682 525.857 450.359 524.614 444.211L513.27 395.581C514.436 393.948 515.244 392.087 515.642 390.121C516.04 388.154 516.019 386.126 515.579 384.168C515.14 382.21 514.293 380.367 513.093 378.759C511.893 377.151 510.367 375.814 508.616 374.835V293.494L593.303 271.492C595.28 270.988 597.024 269.819 598.242 268.182C599.46 266.546 600.078 264.54 599.993 262.501L599.61 252.043Z" fill="url(#paint0_linear_2152_309)"/><path d="M405.526 330.473C308.176 365.503 212.537 365.569 118.607 330.671C103.282 324.973 93.207 311.513 93.207 296.532V224.578H431.455V296.255C431.455 311.328 421.089 324.867 405.526 330.473Z" fill="#07467F"/><path d="M431.453 296.255V224.578H349.754L276.609 356.494C320.652 354.469 364.124 345.707 405.512 330.513C421.087 324.867 431.453 311.328 431.453 296.255Z" fill="url(#paint1_linear_2152_309)"/><path d="M534.468 214.133L534.851 224.605C534.932 226.642 534.314 228.646 533.1 230.284C531.885 231.921 530.147 233.095 528.174 233.609L272.155 300.102C266.289 301.634 260.137 301.702 254.239 300.301L9.00817 242.362C6.44277 241.759 4.15677 240.306 2.52196 238.239C0.887154 236.172 -0.000303353 233.613 0.00392126 230.978V221.352" fill="#083361"/><path d="M253.088 286.424L5.5044 227.877C3.94972 227.504 2.56404 226.623 1.56702 225.373C0.569997 224.123 0.0186853 222.576 0.000466475 220.978C-0.0177523 219.379 0.498165 217.82 1.46645 216.548C2.43473 215.276 3.79997 214.363 5.34574 213.955L252.308 149.815C259.442 147.961 266.913 147.821 274.112 149.405L528.954 205.77C530.526 206.119 531.935 206.986 532.954 208.233C533.973 209.481 534.541 211.034 534.569 212.644C534.596 214.254 534.081 215.827 533.106 217.108C532.13 218.389 530.752 219.304 529.192 219.706L273.318 286.147C266.697 287.878 259.754 287.973 253.088 286.424Z" fill="#1B65A2"/><path d="M436.309 359.834C434.414 359.831 432.598 359.075 431.26 357.734C429.921 356.393 429.169 354.576 429.169 352.681V256.65L260.362 210.465C259.432 210.24 258.555 209.83 257.786 209.26C257.016 208.69 256.369 207.972 255.883 207.147C255.396 206.322 255.08 205.408 254.953 204.459C254.827 203.509 254.892 202.544 255.145 201.621C255.399 200.697 255.835 199.834 256.428 199.082C257.021 198.33 257.759 197.705 258.598 197.244C259.437 196.783 260.361 196.495 261.313 196.397C262.266 196.299 263.229 196.393 264.144 196.675L438.213 244.274C439.734 244.677 441.078 245.574 442.035 246.823C442.992 248.071 443.508 249.602 443.502 251.176V352.655C443.512 354.549 442.771 356.371 441.439 357.72C440.108 359.068 438.296 359.833 436.402 359.847H436.335L436.309 359.834Z" fill="#D4ECFA"/><path d="M446.128 349.034L459.483 406.272C460.726 412.421 456.098 413.743 446.565 413.743H423.783C419.486 413.743 411.394 412.844 413.205 404.831L426.732 349.034C427.348 346.989 428.63 345.208 430.374 343.975C432.118 342.741 434.224 342.125 436.357 342.225C438.512 342.108 440.644 342.715 442.414 343.949C444.185 345.183 445.492 346.973 446.128 349.034Z" fill="#F6CB5B"/><path d="M441.221 349.028L446.88 398.241C447.806 406.266 448.89 413.737 439.582 413.737H433.328C422.155 413.737 425.104 406.266 426.029 398.241L431.688 349.028C432.151 345.062 434.121 342.232 436.422 342.219C438.749 342.192 440.706 345.048 441.221 349.028Z" fill="#F8DC92"/><path d="M436.468 363.686C444.376 363.686 450.788 357.275 450.788 349.366C450.788 341.458 444.376 335.047 436.468 335.047C428.56 335.047 422.148 341.458 422.148 349.366C422.148 357.275 428.56 363.686 436.468 363.686Z" fill="#F6CB5B"/><path d="M267.753 219.289C278.962 219.289 288.049 212.89 288.049 204.996C288.049 197.102 278.962 190.703 267.753 190.703C256.544 190.703 247.457 197.102 247.457 204.996C247.457 212.89 256.544 219.289 267.753 219.289Z" fill="#39CBCB"/><defs><linearGradient id="paint0_linear_2152_309" x1="304.757" y1="157.109" x2="474.17" y2="475.747" gradientUnits="userSpaceOnUse"><stop stop-color="#192647" stop-opacity="0.5"/><stop offset="1" stop-color="#192647" stop-opacity="0"/></linearGradient><linearGradient id="paint1_linear_2152_309" x1="431.387" y1="290.516" x2="276.609" y2="290.516" gradientUnits="userSpaceOnUse"><stop stop-color="#1A2746"/><stop offset="1" stop-color="#083361" stop-opacity="0.2"/></linearGradient></defs></svg>